<svg aria-hidden="true" style="position: absolute; width: 0; height: 0; overflow: hidden;" version="1.1" xmlns="http://www.w3.org/2000/svg" xmlns:xlink="http://www.w3.org/1999/xlink">
<defs>
<symbol id="icon-coma" viewBox="0 0 20 32">
<path fill="#6d95fc" style="fill: var(--color1, #6d95fc)" stroke-linejoin="miter" stroke-linecap="butt" stroke-miterlimit="4" stroke-width="0.9697" stroke="#000" d="M19.879 10.41c0 6.186-3.128 16.852-11.584 21.017-0.794 0.391-1.291-0.611-0.63-1.207 5.774-5.204 7.722-10.595 2.517-9.886-5.355 0-9.697-4.444-9.697-9.925s4.342-9.925 9.697-9.925 9.697 4.444 9.697 9.925z"></path>
</symbol>
<symbol id="icon-Web" viewBox="0 0 31 32">
<path fill="#6d95fc" style="fill: var(--color1, #6d95fc)" stroke-linejoin="miter" stroke-linecap="butt" stroke-miterlimit="4" stroke-width="0.3404" stroke="#000" d="M6.249 25.29c0-1.905 1.483-3.443 3.289-3.443s3.289 1.538 3.289 3.443c0 1.905-1.483 3.443-3.289 3.443s-3.289-1.538-3.289-3.443zM6.897 25.29c0 1.51 1.178 2.751 2.641 2.751s2.641-1.241 2.641-2.751c0-1.51-1.178-2.751-2.641-2.751s-2.641 1.241-2.641 2.751z"></path>
<path fill="#6d95fc" style="fill: var(--color1, #6d95fc)" stroke-linejoin="miter" stroke-linecap="butt" stroke-miterlimit="4" stroke-width="0.3404" stroke="#000" d="M8.226 25.29c0-0.767 0.596-1.378 1.312-1.378s1.312 0.611 1.312 1.378c0 0.767-0.596 1.378-1.312 1.378s-1.312-0.611-1.312-1.378zM8.874 25.29c0 0.372 0.291 0.686 0.664 0.686s0.664-0.315 0.664-0.686c0-0.372-0.291-0.686-0.664-0.686s-0.664 0.315-0.664 0.686z"></path>
<path fill="#fff" style="fill: var(--color2, #fff)" stroke-linejoin="miter" stroke-linecap="butt" stroke-miterlimit="4" stroke-width="0.6809" stroke="#000" d="M30.004 24.109l-3.574-1.4h-0.584v-4.31c1.15-0.426 1.977-1.571 1.977-2.916v-0.79c0-0.623 0.278-1.215 0.763-1.625 1.399-1.183 2.202-2.936 2.202-4.811 0-1.76-0.721-3.443-1.978-4.617-0.838-0.783-1.869-1.285-2.963-1.479v-0.613c0-0.854-0.665-1.548-1.482-1.548h-22.732c-0.817 0-1.482 0.695-1.482 1.548v22.71c0 0.854 0.665 1.548 1.482 1.548h1.503c0.091 0.577 0.48 1.062 1.025 1.249 0.15 0.052 0.266 0.163 0.32 0.308 0.026 0.068 0.051 0.135 0.080 0.202 0.058 0.14 0.051 0.305-0.019 0.451-0.297 0.613-0.184 1.351 0.281 1.838l0.348 0.364c0.465 0.485 1.172 0.603 1.759 0.293 0.139-0.073 0.297-0.080 0.432-0.019 0.063 0.029 0.128 0.056 0.193 0.082 0.138 0.056 0.245 0.178 0.295 0.334 0.205 0.653 0.785 1.092 1.443 1.092h0.492c0.658 0 1.238-0.439 1.444-1.092 0.049-0.156 0.156-0.278 0.295-0.334 0.065-0.027 0.13-0.054 0.193-0.083 0.135-0.060 0.292-0.054 0.431 0.020 0.587 0.31 1.294 0.192 1.76-0.294l0.349-0.364c0.465-0.486 0.578-1.225 0.281-1.837-0.022-0.047-0.027-0.096-0.037-0.144h11.93l3.574-1.4c0.468-0.184 0.783-0.659 0.783-1.181s-0.315-0.997-0.783-1.181h0zM15.941 24.774c-0.066-0.42-0.291-0.789-0.618-1.032h10.521v1.032h-9.904zM15.941 25.806h9.904v1.032h-10.521c0.328-0.243 0.552-0.613 0.618-1.032h-0zM24.857 17.548c-1.090 0-1.977-0.926-1.977-2.064h3.953c0 1.139-0.887 2.064-1.977 2.064zM24.529 9.806h0.657l-0.297 4.645h-0.064l-0.297-4.645zM29.799 8.258c0 1.562-0.669 3.023-1.835 4.009-0.655 0.554-1.052 1.34-1.117 2.185h-0.968l0.296-4.645h0.658c0.817 0 1.482-0.695 1.482-1.548s-0.665-1.548-1.483-1.548h-0.064c-0.778 0-1.428 0.635-1.479 1.446l-0.040 0.619h-0.789l-0.040-0.618c-0.051-0.811-0.701-1.446-1.479-1.446h-0.064c-0.817 0-1.483 0.695-1.483 1.548s0.665 1.548 1.483 1.548h0.658l0.296 4.645h-0.968c-0.067-0.841-0.47-1.634-1.137-2.203-1.37-1.171-2.026-2.971-1.753-4.815 0.331-2.241 2.143-4.051 4.31-4.303 0.193-0.023 0.386-0.033 0.578-0.033 1.219 0 2.369 0.456 3.286 1.313 1.048 0.979 1.649 2.381 1.649 3.848zM26.243 8.774l0.035-0.551c0.017-0.27 0.234-0.482 0.493-0.482h0.064c0.273 0 0.494 0.231 0.494 0.516s-0.221 0.516-0.494 0.516h-0.591zM23.472 8.774h-0.591c-0.273 0-0.494-0.231-0.494-0.516s0.221-0.516 0.494-0.516h0.064c0.259 0 0.476 0.212 0.493 0.482l0.035 0.55zM12.998 8.258h-1.482c-0.506 0-0.953 0.267-1.221 0.673-0.417-0.414-0.978-0.673-1.597-0.673h-0.135c-0.421 0-0.834 0.119-1.196 0.346l-2.276 1.427v1.056l2.155 1.8c0.41 0.343 0.926 0.532 1.452 0.532 0.619 0 1.18-0.259 1.597-0.673 0.267 0.405 0.715 0.673 1.221 0.673h1.482v1.032h-9.883v-7.226h9.883l0 1.032zM8.698 12.387c-0.302 0-0.598-0.108-0.834-0.306l-1.768-1.477 1.78-1.115c0.208-0.13 0.445-0.199 0.687-0.199h0.135c0.736 0 1.335 0.626 1.335 1.394v0.309c0 0.768-0.599 1.394-1.335 1.394zM11.515 12.387c-0.273 0-0.494-0.231-0.494-0.516v-2.065c0-0.285 0.221-0.516 0.494-0.516h7.507c0.184 1.15 0.67 2.22 1.428 3.097h-8.934zM1.632 1.032h22.732c0.273 0 0.494 0.231 0.494 0.516v0.52c-0.226-0-0.454 0.010-0.681 0.036-1.453 0.169-2.773 0.923-3.725 2.025h-7.454v-2.065h-2.965v2.065h-0.988v-2.065h-2.965v2.065h-0.988v-2.065h-2.965v2.065h-0.988v-2.581c0-0.285 0.222-0.516 0.494-0.516h-0zM12.009 4.129h-0.988v-1.032h0.988v1.032zM8.056 4.129h-0.988v-1.032h0.988v1.032zM4.103 4.129h-0.988v-1.032h0.988v1.032zM1.138 24.258v-19.097h18.594c-0.363 0.645-0.619 1.358-0.73 2.115-0.049 0.33-0.065 0.657-0.065 0.982h-4.95v-2.065h-11.86v9.29h11.86v-2.065h7.466c0.283 0.375 0.441 0.82 0.441 1.278v0.787c0 1.708 1.33 3.097 2.965 3.097v4.129h-10.358c0.009-0.049 0.014-0.098 0.037-0.144 0.297-0.613 0.184-1.351-0.281-1.838l-0.348-0.364c-0.465-0.486-1.172-0.606-1.759-0.294-0.139 0.074-0.297 0.081-0.432 0.019-0.063-0.029-0.128-0.056-0.193-0.082-0.138-0.056-0.245-0.178-0.295-0.334-0.205-0.653-0.785-1.092-1.443-1.092h-0.492c-0.658 0-1.238 0.439-1.443 1.092-0.049 0.156-0.156 0.278-0.295 0.334-0.065 0.027-0.13 0.054-0.193 0.083-0.135 0.060-0.292 0.054-0.432-0.020-0.587-0.31-1.294-0.192-1.76 0.294l-0.349 0.364c-0.465 0.486-0.578 1.225-0.281 1.837 0.071 0.146 0.077 0.311 0.018 0.452-0.028 0.066-0.053 0.133-0.079 0.202-0.054 0.144-0.171 0.256-0.32 0.308-0.545 0.187-0.934 0.671-1.025 1.248h-1.503c-0.273 0-0.494-0.231-0.494-0.516l-0 0zM13.676 26.988c-0.021 0.056-0.043 0.111-0.065 0.165-0.176 0.423-0.16 0.907 0.043 1.327 0.104 0.214 0.064 0.472-0.098 0.642l-0.348 0.363c-0.163 0.17-0.409 0.211-0.615 0.103-0.402-0.212-0.866-0.229-1.27-0.045-0.052 0.024-0.105 0.047-0.158 0.069-0.415 0.168-0.733 0.524-0.875 0.974-0.072 0.228-0.275 0.381-0.505 0.381h-0.492c-0.23 0-0.433-0.153-0.505-0.382-0.142-0.45-0.461-0.805-0.875-0.974-0.053-0.022-0.106-0.045-0.158-0.068-0.187-0.085-0.386-0.127-0.586-0.127-0.234 0-0.468 0.057-0.685 0.172-0.205 0.108-0.452 0.067-0.615-0.102l-0.348-0.364c-0.163-0.17-0.202-0.428-0.098-0.643 0.203-0.42 0.219-0.904 0.043-1.326-0.023-0.055-0.045-0.11-0.066-0.165-0.161-0.433-0.502-0.766-0.933-0.914-0.217-0.075-0.364-0.287-0.364-0.527v-0.514c0-0.241 0.147-0.452 0.366-0.527 0.431-0.148 0.771-0.482 0.932-0.914 0.021-0.056 0.043-0.111 0.065-0.165 0.176-0.423 0.16-0.907-0.043-1.327-0.104-0.214-0.064-0.472 0.098-0.642l0.348-0.364c0.163-0.169 0.41-0.21 0.615-0.102 0.402 0.212 0.867 0.229 1.27 0.045 0.052-0.024 0.105-0.047 0.158-0.069 0.415-0.168 0.733-0.524 0.875-0.974 0.072-0.228 0.274-0.381 0.505-0.381h0.492c0.23 0 0.433 0.153 0.505 0.382 0.142 0.45 0.461 0.805 0.875 0.974 0.053 0.022 0.106 0.045 0.158 0.068 0.405 0.184 0.868 0.167 1.271-0.045 0.206-0.109 0.453-0.067 0.615 0.102l0.348 0.364c0.163 0.17 0.202 0.428 0.098 0.643-0.203 0.42-0.219 0.904-0.043 1.326 0.023 0.055 0.045 0.11 0.066 0.165 0.161 0.433 0.502 0.766 0.933 0.914 0.218 0.075 0.365 0.287 0.365 0.527v0.514c0 0.241-0.147 0.452-0.366 0.527-0.431 0.148-0.771 0.481-0.932 0.914zM29.657 25.505l-2.823 1.106v-2.639l2.823 1.105c0.085 0.033 0.142 0.12 0.142 0.215s-0.057 0.181-0.142 0.214z"></path>
<path fill="#6d95fc" style="fill: var(--color1, #6d95fc)" stroke-linejoin="miter" stroke-linecap="butt" stroke-miterlimit="4" stroke-width="0.3404" stroke="#000" d="M15.144 14.622h5.59v0.692h-5.59v-0.692z"></path>
<path fill="#6d95fc" style="fill: var(--color1, #6d95fc)" stroke-linejoin="miter" stroke-linecap="butt" stroke-miterlimit="4" stroke-width="0.3404" stroke="#000" d="M15.144 16.686h5.59v0.692h-5.59v-0.692z"></path>
<path fill="#6d95fc" style="fill: var(--color1, #6d95fc)" stroke-linejoin="miter" stroke-linecap="butt" stroke-miterlimit="4" stroke-width="0.3404" stroke="#000" d="M15.144 18.751h5.59v0.692h-5.59v-0.692z"></path>
<path fill="#6d95fc" style="fill: var(--color1, #6d95fc)" stroke-linejoin="miter" stroke-linecap="butt" stroke-miterlimit="4" stroke-width="0.3404" stroke="#000" d="M18.109 20.816h0.648v0.692h-0.648v-0.692z"></path>
<path fill="#6d95fc" style="fill: var(--color1, #6d95fc)" stroke-linejoin="miter" stroke-linecap="butt" stroke-miterlimit="4" stroke-width="0.3404" stroke="#000" d="M20.086 20.816h0.648v0.692h-0.648v-0.692z"></path>
<path fill="#6d95fc" style="fill: var(--color1, #6d95fc)" stroke-linejoin="miter" stroke-linecap="butt" stroke-miterlimit="4" stroke-width="0.3404" stroke="#000" d="M16.132 20.816h0.648v0.692h-0.648v-0.692z"></path>
<path stroke-linejoin="miter" stroke-linecap="butt" stroke-miterlimit="4" stroke-width="0.3404" d="M0 0h30.638v32h-30.638v-32z"></path>
</symbol>
<symbol id="icon-ux" viewBox="0 0 32 32">
<path fill="#6d95fc" style="fill: var(--color1, #6d95fc)" d="M10.233 22.71h-4.645c-0.142 0-0.258-0.116-0.258-0.258v-3.097c0-0.142 0.116-0.258 0.258-0.258s0.258 0.116 0.258 0.258v2.839h4.387c0.142 0 0.258 0.116 0.258 0.258s-0.116 0.258-0.258 0.258z"></path>
<path fill="#fff" style="fill: var(--color2, #fff)" d="M30.362 22.71h-13.419c-0.142 0-0.258-0.116-0.258-0.258s0.116-0.258 0.258-0.258h13.161v-12.903h-12.646c-0.142 0-0.258-0.116-0.258-0.258s0.116-0.258 0.258-0.258h12.903c0.142 0 0.258 0.116 0.258 0.258v13.419c0 0.142-0.116 0.258-0.258 0.258h0.001z"></path>
<path fill="#fff" style="fill: var(--color2, #fff)" d="M13.845 30.968c-0.018 0-0.037-0.002-0.056-0.006-0.139-0.031-0.226-0.169-0.196-0.308l1.032-4.645c0.031-0.139 0.167-0.226 0.308-0.196 0.139 0.031 0.226 0.169 0.196 0.308l-1.032 4.645c-0.027 0.12-0.134 0.202-0.252 0.202z"></path>
<path fill="#fff" style="fill: var(--color2, #fff)" d="M22.103 30.968c-0.118 0-0.226-0.082-0.252-0.202l-1.032-4.645c-0.031-0.139 0.057-0.277 0.196-0.308 0.141-0.029 0.277 0.057 0.308 0.196l1.032 4.645c0.031 0.139-0.057 0.277-0.196 0.308-0.019 0.004-0.038 0.006-0.056 0.006z"></path>
<path fill="#fff" style="fill: var(--color2, #fff)" d="M25.2 26.323h-19.755c-0.918 0-1.664-0.757-1.664-1.687v-5.28c0-0.142 0.116-0.258 0.258-0.258s0.258 0.116 0.258 0.258v5.28c0 0.646 0.515 1.171 1.148 1.171h19.755c0.142 0 0.258 0.116 0.258 0.258s-0.116 0.258-0.258 0.258z"></path>
<path fill="#fff" style="fill: var(--color2, #fff)" d="M30.504 26.323h-1.175c-0.142 0-0.258-0.116-0.258-0.258s0.116-0.258 0.258-0.258h1.175c0.633 0 1.148-0.525 1.148-1.171v-15.722c0-0.646-0.515-1.171-1.148-1.171h-13.045c-0.142 0-0.258-0.116-0.258-0.258s0.116-0.258 0.258-0.258h13.045c0.918 0 1.664 0.757 1.664 1.687v15.722c0 0.93-0.746 1.687-1.664 1.687v0z"></path>
<path fill="#fff" style="fill: var(--color2, #fff)" d="M28.040 32h-1.548c-0.854 0-1.548-0.695-1.548-1.548v-4.645c0-0.854 0.695-1.548 1.548-1.548h1.548c0.854 0 1.548 0.695 1.548 1.548v4.645c0 0.854-0.695 1.548-1.548 1.548zM26.491 24.774c-0.569 0-1.032 0.463-1.032 1.032v4.645c0 0.569 0.463 1.032 1.032 1.032h1.548c0.569 0 1.032-0.463 1.032-1.032v-4.645c0-0.569-0.463-1.032-1.032-1.032h-1.548z"></path>
<path fill="#fff" style="fill: var(--color2, #fff)" d="M27.265 27.355c-0.142 0-0.258-0.116-0.258-0.258v-1.032c0-0.142 0.116-0.258 0.258-0.258s0.258 0.116 0.258 0.258v1.032c0 0.142-0.116 0.258-0.258 0.258z"></path>
<path fill="#fff" style="fill: var(--color2, #fff)" d="M23.136 32h-10.323c-0.427 0-0.774-0.347-0.774-0.774s0.348-0.774 0.774-0.774h10.323c0.427 0 0.774 0.347 0.774 0.774s-0.347 0.774-0.774 0.774zM12.813 30.968c-0.142 0-0.258 0.116-0.258 0.258s0.116 0.258 0.258 0.258h10.323c0.142 0 0.258-0.116 0.258-0.258s-0.116-0.258-0.258-0.258h-10.323z"></path>
<path fill="#fff" style="fill: var(--color2, #fff)" d="M17.459 19.613h-17.032c-0.142 0-0.258-0.116-0.258-0.258v-19.097c0-0.142 0.116-0.258 0.258-0.258h17.032c0.142 0 0.258 0.116 0.258 0.258v19.097c0 0.142-0.116 0.258-0.258 0.258zM0.684 19.097h16.516v-18.581h-16.516v18.581z"></path>
<path fill="#fff" style="fill: var(--color2, #fff)" d="M29.329 6.194h-8.258c-0.142 0-0.258-0.116-0.258-0.258v-4.645c0-0.142 0.116-0.258 0.258-0.258h8.258c0.142 0 0.258 0.116 0.258 0.258v4.645c0 0.142-0.116 0.258-0.258 0.258zM21.33 5.677h7.742v-4.129h-7.742v4.129z"></path>
<path fill="#6d95fc" style="fill: var(--color1, #6d95fc)" d="M28.814 12.903h-9.807c-0.142 0-0.258-0.116-0.258-0.258v-2.065c0-0.142 0.116-0.258 0.258-0.258h9.807c0.142 0 0.258 0.116 0.258 0.258v2.065c0 0.142-0.116 0.258-0.258 0.258zM19.265 12.387h9.29v-1.548h-9.29v1.548z"></path>
<path fill="#6d95fc" style="fill: var(--color1, #6d95fc)" d="M22.104 18.065h-3.097c-0.142 0-0.258-0.116-0.258-0.258v-2.065c0-0.142 0.116-0.258 0.258-0.258h3.097c0.142 0 0.258 0.116 0.258 0.258v2.065c0 0.142-0.116 0.258-0.258 0.258zM19.265 17.548h2.581v-1.548h-2.581v1.548z"></path>
<path fill="#6d95fc" style="fill: var(--color1, #6d95fc)" d="M28.813 18.065h-5.161c-0.142 0-0.258-0.116-0.258-0.258v-2.065c0-0.142 0.116-0.258 0.258-0.258h5.161c0.142 0 0.258 0.116 0.258 0.258v2.065c0 0.142-0.116 0.258-0.258 0.258zM23.91 17.548h4.645v-1.548h-4.645v1.548z"></path>
<path fill="#6d95fc" style="fill: var(--color1, #6d95fc)" d="M28.814 21.162h-21.678c-0.142 0-0.258-0.116-0.258-0.258s0.116-0.258 0.258-0.258h21.678c0.142 0 0.258 0.116 0.258 0.258s-0.116 0.258-0.258 0.258z"></path>
<path fill="#6d95fc" style="fill: var(--color1, #6d95fc)" d="M28.814 19.613h-9.807c-0.142 0-0.258-0.116-0.258-0.258s0.116-0.258 0.258-0.258h9.807c0.142 0 0.258 0.116 0.258 0.258s-0.116 0.258-0.258 0.258z"></path>
<path fill="#6d95fc" style="fill: var(--color1, #6d95fc)" d="M28.814 14.452h-9.807c-0.142 0-0.258-0.116-0.258-0.258s0.116-0.258 0.258-0.258h9.807c0.142 0 0.258 0.116 0.258 0.258s-0.116 0.258-0.258 0.258z"></path>
<path fill="#6d95fc" style="fill: var(--color1, #6d95fc)" d="M3.523 4.645c-0.712 0-1.29-0.579-1.29-1.29s0.579-1.29 1.29-1.29c0.712 0 1.29 0.579 1.29 1.29s-0.579 1.29-1.29 1.29zM3.523 2.581c-0.427 0-0.774 0.347-0.774 0.774s0.347 0.774 0.774 0.774c0.427 0 0.774-0.348 0.774-0.774s-0.347-0.774-0.774-0.774z"></path>
<path fill="#6d95fc" style="fill: var(--color1, #6d95fc)" d="M4.555 6.193h-2.065c-0.142 0-0.258-0.116-0.258-0.258s0.116-0.258 0.258-0.258h2.065c0.142 0 0.258 0.116 0.258 0.258s-0.116 0.258-0.258 0.258z"></path>
<path fill="#6d95fc" style="fill: var(--color1, #6d95fc)" d="M10.233 6.193h-2.581c-0.142 0-0.258-0.116-0.258-0.258s0.116-0.258 0.258-0.258h2.581c0.142 0 0.258 0.116 0.258 0.258s-0.116 0.258-0.258 0.258z"></path>
<path fill="#6d95fc" style="fill: var(--color1, #6d95fc)" d="M14.362 4.645c-0.712 0-1.29-0.579-1.29-1.29s0.579-1.29 1.29-1.29c0.712 0 1.29 0.579 1.29 1.29s-0.579 1.29-1.29 1.29zM14.362 2.581c-0.427 0-0.774 0.347-0.774 0.774s0.348 0.774 0.774 0.774c0.427 0 0.774-0.348 0.774-0.774s-0.347-0.774-0.774-0.774z"></path>
<path fill="#6d95fc" style="fill: var(--color1, #6d95fc)" d="M15.394 6.193h-2.065c-0.142 0-0.258-0.116-0.258-0.258s0.116-0.258 0.258-0.258h2.065c0.142 0 0.258 0.116 0.258 0.258s-0.116 0.258-0.258 0.258z"></path>
<path fill="#6d95fc" style="fill: var(--color1, #6d95fc)" d="M10.233 4.645h-2.581c-0.142 0-0.258-0.116-0.258-0.258v-2.065c0-0.142 0.116-0.258 0.258-0.258h2.581c0.142 0 0.258 0.116 0.258 0.258v2.065c0 0.142-0.116 0.258-0.258 0.258zM7.91 4.129h2.065v-1.548h-2.065v1.548z"></path>
<path fill="#6d95fc" style="fill: var(--color1, #6d95fc)" d="M15.394 11.355h-12.903c-0.142 0-0.258-0.116-0.258-0.258s0.116-0.258 0.258-0.258h12.903c0.142 0 0.258 0.116 0.258 0.258s-0.116 0.258-0.258 0.258z"></path>
<path fill="#6d95fc" style="fill: var(--color1, #6d95fc)" d="M15.394 17.548h-12.903c-0.142 0-0.258-0.116-0.258-0.258s0.116-0.258 0.258-0.258h12.903c0.142 0 0.258 0.116 0.258 0.258s-0.116 0.258-0.258 0.258z"></path>
<path fill="#fff" style="fill: var(--color2, #fff)" d="M26.75 3.097h-1.032c-0.142 0-0.258-0.116-0.258-0.258s0.116-0.258 0.258-0.258h1.032c0.142 0 0.258 0.116 0.258 0.258s-0.116 0.258-0.258 0.258z"></path>
<path fill="#fff" style="fill: var(--color2, #fff)" d="M27.782 4.645h-2.064c-0.142 0-0.258-0.116-0.258-0.258s0.116-0.258 0.258-0.258h2.064c0.142 0 0.258 0.116 0.258 0.258s-0.116 0.258-0.258 0.258z"></path>
<path fill="#fff" style="fill: var(--color2, #fff)" d="M24.684 4.645h-2.064c-0.142 0-0.258-0.116-0.258-0.258v-1.548c0-0.142 0.116-0.258 0.258-0.258h2.064c0.142 0 0.258 0.116 0.258 0.258v1.548c0 0.142-0.116 0.258-0.258 0.258zM22.878 4.129h1.548v-1.032h-1.548v1.032z"></path>
<path fill="#6d95fc" style="fill: var(--color1, #6d95fc)" d="M14.362 22.71h-2.581c-0.142 0-0.258-0.116-0.258-0.258s0.116-0.258 0.258-0.258h2.581c0.142 0 0.258 0.116 0.258 0.258s-0.116 0.258-0.258 0.258z"></path>
</symbol>
<symbol id="icon-graphic" viewBox="0 0 31 32">
<path fill="#6d95fc" style="fill: var(--color1, #6d95fc)" d="M28.318 26.723h-25.915c-1.236 0-2.242-0.991-2.242-2.21v-1.934c0-0.176 0.145-0.319 0.323-0.319h29.753c0.179 0 0.323 0.143 0.323 0.319v1.934c0 1.219-1.006 2.21-2.242 2.21zM0.807 22.898v1.615c0 0.867 0.716 1.573 1.595 1.573h25.915c0.88 0 1.596-0.705 1.596-1.573v-1.615h-29.106z"></path>
<path fill="#fbfbfb" style="fill: var(--color3, #fbfbfb)" d="M0.807 22.898v-1.28h-1.28v1.28h1.28zM29.913 22.898h1.28v-1.28h-1.28v1.28zM28.318 25.443h-25.915v2.56h25.915v-2.56zM2.402 25.443c-0.547 0-0.962-0.436-0.962-0.93h-2.56c0 1.943 1.596 3.49 3.522 3.49v-2.56zM1.44 24.513v-1.934h-2.56v1.934h2.56zM1.44 22.579c0 0.548-0.446 0.961-0.957 0.961v-2.56c-0.868 0-1.603 0.698-1.603 1.599h2.56zM0.483 23.54h29.753v-2.56h-29.753v2.56zM30.237 23.54c-0.511 0-0.957-0.413-0.957-0.961h2.56c0-0.9-0.735-1.599-1.603-1.599v2.56zM29.28 22.579v1.934h2.56v-1.934h-2.56zM29.28 24.513c0 0.494-0.415 0.93-0.962 0.93v2.56c1.926 0 3.522-1.547 3.522-3.49h-2.56zM-0.473 22.898v1.615h2.56v-1.615h-2.56zM-0.473 24.513c0 1.591 1.306 2.853 2.875 2.853v-2.56c-0.19 0-0.315-0.15-0.315-0.293h-2.56zM2.402 27.365h25.915v-2.56h-25.915v2.56zM28.318 27.365c1.569 0 2.875-1.261 2.875-2.853h-2.56c0 0.143-0.125 0.293-0.316 0.293v2.56zM31.193 24.513v-1.615h-2.56v1.615h2.56zM29.913 21.618h-29.106v2.56h29.106v-2.56z"></path>
<path fill="#6d95fc" style="fill: var(--color1, #6d95fc)" d="M30.237 22.897h-29.753c-0.179 0-0.323-0.143-0.323-0.319v-14.249c0-1.459 1.204-2.646 2.684-2.646h11.255c0.179 0 0.323 0.143 0.323 0.319s-0.145 0.319-0.323 0.319h-11.255c-1.123 0-2.037 0.901-2.037 2.008v13.931h29.106v-13.931c0-1.107-0.914-2.008-2.037-2.008h-7.374c-0.179 0-0.323-0.143-0.323-0.319s0.145-0.319 0.323-0.319h7.374c1.48 0 2.684 1.187 2.684 2.646v14.249c0 0.176-0.145 0.319-0.323 0.319z"></path>
<path fill="#fbfbfb" style="fill: var(--color3, #fbfbfb)" d="M0.807 22.26h-1.28v1.28h1.28v-1.28zM29.913 22.26v1.28h1.28v-1.28h-1.28zM30.237 21.617h-29.753v2.56h29.753v-2.56zM0.483 21.617c0.511 0 0.957 0.413 0.957 0.961h-2.56c0 0.901 0.736 1.599 1.603 1.599v-2.56zM1.44 22.579v-14.249h-2.56v14.249h2.56zM1.44 8.329c0-0.735 0.614-1.366 1.404-1.366v-2.56c-2.17 0-3.964 1.743-3.964 3.926h2.56zM2.844 6.963h11.255v-2.56h-11.255v2.56zM14.099 6.963c-0.511 0-0.957-0.413-0.957-0.961h2.56c0-0.9-0.735-1.599-1.603-1.599v2.56zM13.142 6.002c0-0.548 0.446-0.961 0.957-0.961v2.56c0.868 0 1.603-0.699 1.603-1.599h-2.56zM14.099 5.041h-11.255v2.56h11.255v-2.56zM2.844 5.041c-1.813 0-3.317 1.457-3.317 3.288h2.56c0-0.383 0.323-0.728 0.757-0.728v-2.56zM-0.473 8.329v13.931h2.56v-13.931h-2.56zM0.807 23.54h29.106v-2.56h-29.106v2.56zM31.193 22.26v-13.931h-2.56v13.931h2.56zM31.193 8.329c0-1.832-1.505-3.288-3.317-3.288v2.56c0.434 0 0.757 0.345 0.757 0.728h2.56zM27.876 5.041h-7.374v2.56h7.374v-2.56zM20.502 5.041c0.511 0 0.957 0.413 0.957 0.961h-2.56c0 0.9 0.735 1.599 1.603 1.599v-2.56zM21.459 6.002c0 0.548-0.446 0.961-0.957 0.961v-2.56c-0.868 0-1.603 0.699-1.603 1.599h2.56zM20.502 6.963h7.374v-2.56h-7.374v2.56zM27.876 6.963c0.791 0 1.404 0.631 1.404 1.366h2.56c0-2.183-1.795-3.926-3.964-3.926v2.56zM29.28 8.329v14.249h2.56v-14.249h-2.56zM29.28 22.579c0-0.548 0.446-0.961 0.957-0.961v2.56c0.868 0 1.603-0.698 1.603-1.599h-2.56z"></path>
<path fill="#6d95fc" style="fill: var(--color1, #6d95fc)" d="M10.283 13.238c-0.085 0-0.167-0.033-0.229-0.093-0.084-0.083-0.115-0.205-0.081-0.317l1.372-4.508c0.015-0.051 0.043-0.097 0.081-0.134l7.546-7.439c0.489-0.482 1.138-0.747 1.829-0.747s1.341 0.265 1.829 0.747c0.489 0.482 0.758 1.122 0.758 1.803s-0.269 1.322-0.758 1.803l-7.546 7.439c-0.038 0.037-0.084 0.065-0.136 0.080l-4.574 1.352c-0.031 0.009-0.062 0.013-0.093 0.013zM11.941 8.579l-1.176 3.864 3.92-1.159 7.489-7.382c0.366-0.361 0.568-0.842 0.568-1.352s-0.202-0.991-0.568-1.352c-0.366-0.361-0.854-0.56-1.372-0.56s-1.006 0.199-1.372 0.56l-7.489 7.382z"></path>
<path fill="#6d95fc" style="fill: var(--color1, #6d95fc)" d="M10.054 13.145l-0.899 0.912 0 0 0.898-0.912zM9.973 12.828v0zM11.345 8.319v0zM11.426 8.186v0zM18.973 0.747v0zM22.631 0.747v0zM22.631 4.354v0zM15.085 11.792v0zM14.949 11.872l-0.362-1.228-0.001 0 0.363 1.227zM10.376 13.224l-0.363-1.227-0.003 0.001 0.366 1.227zM11.941 8.579l-0.899-0.912-0.231 0.228-0.095 0.311 1.225 0.373zM10.765 12.444l-1.225-0.373-0.692 2.274 2.28-0.674-0.363-1.227zM14.685 11.284l0.363 1.227 0.307-0.091 0.228-0.225-0.899-0.912zM22.174 3.903v0zM22.174 1.198v0zM19.43 1.198v0zM10.283 11.958c0.244 0 0.486 0.094 0.669 0.275l-1.796 1.824c0.306 0.302 0.714 0.461 1.127 0.461v-2.56zM10.953 12.233c0.252 0.249 0.35 0.621 0.245 0.968l-2.449-0.746c-0.174 0.571-0.014 1.187 0.407 1.602l1.797-1.823zM11.198 13.2l1.372-4.508-2.449-0.745-1.372 4.508 2.449 0.745zM12.57 8.692c-0.047 0.154-0.131 0.293-0.245 0.405l-1.797-1.823c-0.189 0.187-0.329 0.418-0.407 0.673l2.449 0.746zM12.325 9.097l7.547-7.439-1.797-1.823-7.546 7.439 1.797 1.823zM19.871 1.659c0.247-0.244 0.573-0.379 0.931-0.379v-2.56c-1.025 0-1.998 0.396-2.728 1.115l1.797 1.823zM20.802 1.28c0.358 0 0.684 0.135 0.931 0.379l1.797-1.823c-0.73-0.72-1.703-1.115-2.728-1.115v2.56zM21.733 1.659c0.247 0.243 0.376 0.556 0.376 0.892h2.56c0-1.027-0.409-1.995-1.139-2.715l-1.797 1.823zM22.109 2.55c0 0.336-0.13 0.649-0.376 0.892l1.797 1.823c0.731-0.72 1.139-1.688 1.139-2.715h-2.56zM21.733 3.442l-7.546 7.438 1.797 1.823 7.546-7.439-1.797-1.823zM14.187 10.88c0.113-0.111 0.251-0.192 0.401-0.236l0.723 2.456c0.253-0.075 0.484-0.21 0.673-0.396l-1.797-1.823zM14.586 10.644l-4.574 1.352 0.726 2.455 4.574-1.352-0.726-2.455zM10.010 11.998c0.092-0.028 0.184-0.040 0.273-0.040v2.56c0.15 0 0.305-0.021 0.459-0.067l-0.731-2.453zM10.717 8.207l-1.176 3.864 2.449 0.745 1.176-3.864-2.449-0.745zM11.128 13.671l3.92-1.159-0.726-2.455-3.92 1.159 0.726 2.455zM15.584 12.196l7.489-7.382-1.797-1.823-7.489 7.382 1.797 1.823zM23.073 4.814c0.608-0.6 0.95-1.407 0.95-2.264h-2.56c0 0.165-0.062 0.318-0.187 0.441l1.797 1.823zM24.023 2.55c0-0.856-0.341-1.664-0.95-2.264l-1.797 1.823c0.124 0.123 0.187 0.276 0.187 0.441h2.56zM23.073 0.286c-0.608-0.599-1.419-0.929-2.271-0.929v2.56c0.185 0 0.349 0.069 0.474 0.192l1.797-1.823zM20.802-0.642c-0.852 0-1.663 0.329-2.271 0.929l1.797 1.823c0.125-0.123 0.289-0.192 0.474-0.192v-2.56zM18.531 0.286l-7.489 7.382 1.797 1.823 7.489-7.382-1.797-1.823z"></path>
<path fill="#6d95fc" style="fill: var(--color1, #6d95fc)" d="M12.798 10.296c-0.373 0-0.745-0.14-1.029-0.419-0.567-0.559-0.567-1.469 0-2.029 0.126-0.124 0.331-0.124 0.457 0s0.126 0.326 0 0.451c-0.315 0.311-0.315 0.816 0 1.127s0.828 0.311 1.143 0c0.126-0.124 0.331-0.124 0.457 0s0.126 0.326 0 0.451c-0.284 0.28-0.656 0.419-1.029 0.419z"></path>
<path fill="#6d95fc" style="fill: var(--color1, #6d95fc)" d="M11.769 9.876v0zM11.769 7.847v0zM12.227 7.847v0zM13.37 9.425l-0.898-0.912-0 0 0.899 0.912zM13.827 9.425v0zM13.827 9.876v0zM12.798 9.016c-0.054 0-0.099-0.020-0.131-0.051l-1.797 1.823c0.535 0.528 1.236 0.788 1.928 0.788v-2.56zM12.668 8.965c-0.059-0.058-0.059-0.148 0-0.206l-1.797-1.823c-1.076 1.061-1.076 2.791 0 3.852l1.797-1.823zM12.668 8.759c-0.372 0.367-0.968 0.367-1.34 0l1.797-1.824c-0.624-0.615-1.63-0.616-2.254 0l1.797 1.823zM11.328 8.759c-0.382-0.377-0.382-0.996 0-1.372l1.797 1.823c0.635-0.626 0.635-1.648 0-2.274l-1.797 1.823zM11.328 7.387c-0.824 0.812-0.824 2.138 0 2.95l1.797-1.823c0.193 0.191 0.193 0.506 0 0.696l-1.797-1.823zM11.328 10.337c0.814 0.802 2.127 0.802 2.941 0l-1.797-1.823c0.183-0.18 0.471-0.18 0.654 0l-1.797 1.823zM14.268 10.337c-0.372 0.366-0.967 0.366-1.339-0l1.797-1.824c-0.624-0.615-1.629-0.615-2.254-0l1.796 1.824zM12.929 10.337c-0.382-0.377-0.382-0.996 0-1.373l1.797 1.824c0.635-0.626 0.635-1.649 0-2.274l-1.797 1.823zM12.929 8.964c-0.032 0.031-0.076 0.051-0.13 0.051v2.56c0.691 0 1.392-0.26 1.928-0.788l-1.797-1.823z"></path>
<path fill="#6d95fc" style="fill: var(--color1, #6d95fc); stroke: var(--color1, #6d95fc)" stroke="#6d95fc" stroke-linejoin="miter" stroke-linecap="butt" stroke-miterlimit="4" stroke-width="1.28" d="M17.844 5.914c0 0-0 0-0 0l0-0zM17.403 5.453v0zM17.395 5.458v0zM17.395 5.458v0z"></path>
<path fill="#6d95fc" style="fill: var(--color1, #6d95fc)" d="M21.489 5.349c-0.083 0-0.166-0.031-0.229-0.093l-3.202-3.156c-0.126-0.125-0.126-0.326 0-0.451s0.331-0.124 0.457 0l3.202 3.156c0.126 0.125 0.126 0.326 0 0.451-0.063 0.062-0.146 0.093-0.229 0.093z"></path>
<path fill="#6d95fc" style="fill: var(--color1, #6d95fc)" d="M21.26 5.255v0zM18.058 2.099v0zM18.058 1.649l0.898 0.912 0-0-0.899-0.911zM18.516 1.649v0zM21.717 4.804v0zM21.717 5.255l-0.898-0.912-0.001 0.001 0.899 0.911zM21.489 4.069c0.236 0 0.482 0.090 0.67 0.276l-1.798 1.822c0.315 0.31 0.726 0.462 1.128 0.462v-2.56zM22.159 4.344l-3.202-3.156-1.797 1.823 3.202 3.156 1.797-1.823zM18.957 1.188c0.382 0.377 0.382 0.996-0 1.373l-1.797-1.824c-0.635 0.626-0.635 1.649-0 2.274l1.797-1.823zM18.957 2.56c-0.372 0.367-0.968 0.367-1.34 0l1.798-1.823c-0.625-0.616-1.63-0.616-2.255 0l1.798 1.823zM17.617 2.56l3.202 3.156 1.797-1.823-3.202-3.156-1.797 1.823zM20.819 5.716c-0.382-0.377-0.383-0.996 0-1.373l1.797 1.824c0.635-0.626 0.635-1.649 0-2.274l-1.797 1.823zM20.818 4.344c0.189-0.186 0.434-0.276 0.67-0.276v2.56c0.402 0 0.813-0.152 1.128-0.462l-1.798-1.822z"></path>
<path fill="#6d95fc" style="fill: var(--color1, #6d95fc)" d="M22.475 19.71h-5.174c-1.070 0-1.94-0.858-1.94-1.913s0.87-1.913 1.94-1.913h7.115c0.713 0 1.294-0.572 1.294-1.275v-0.096c0-0.703-0.58-1.275-1.294-1.275h-14.132c-0.179 0-0.323-0.143-0.323-0.319s0.145-0.319 0.323-0.319h14.132c1.070 0 1.94 0.858 1.94 1.913v0.096c0 1.055-0.87 1.913-1.94 1.913h-7.115c-0.713 0-1.294 0.572-1.294 1.275s0.58 1.275 1.294 1.275h5.174c0.179 0 0.323 0.143 0.323 0.319s-0.145 0.319-0.323 0.319z"></path>
<path fill="#6d95fc" style="fill: var(--color1, #6d95fc)" d="M22.475 18.43h-5.174v2.56h5.174v-2.56zM17.3 18.43c-0.38 0-0.66-0.302-0.66-0.633h-2.56c0 1.779 1.461 3.193 3.22 3.193v-2.56zM16.64 17.797c0-0.33 0.28-0.633 0.66-0.633v-2.56c-1.759 0-3.22 1.414-3.22 3.193h2.56zM17.3 17.164h7.115v-2.56h-7.115v2.56zM24.415 17.164c1.403 0 2.574-1.128 2.574-2.555h-2.56c0-0 0-0.002 0.001-0.004s0.001-0.004 0.002-0.005 0.002-0.002-0-0.001-0.004 0.003-0.006 0.004c-0.001 0-0.002 0.001-0.003 0.001s-0.003 0.001-0.007 0.001v2.56zM26.989 14.609v-0.096h-2.56v0.096h2.56zM26.989 14.513c0-1.427-1.171-2.555-2.574-2.555v2.56c0.003 0 0.006 0 0.007 0.001s0.002 0.001 0.003 0.001 0.004 0.002 0.006 0.004c0.002 0.002 0.001 0.002 0-0.001-0.001-0.001-0.001-0.003-0.002-0.005s-0.001-0.004-0.001-0.004h2.56zM24.415 11.958h-14.132v2.56h14.132v-2.56zM10.283 11.958c0.511 0 0.957 0.413 0.957 0.961h-2.56c0 0.9 0.735 1.599 1.603 1.599v-2.56zM11.239 12.919c0 0.548-0.446 0.961-0.957 0.961v-2.56c-0.868 0-1.603 0.698-1.603 1.599h2.56zM10.283 13.88h14.132v-2.56h-14.132v2.56zM24.415 13.88c0.38 0 0.66 0.302 0.66 0.633h2.56c0-1.779-1.461-3.193-3.22-3.193v2.56zM25.075 14.513v0.096h2.56v-0.096h-2.56zM25.075 14.609c0 0.33-0.28 0.633-0.66 0.633v2.56c1.759 0 3.22-1.414 3.22-3.193h-2.56zM24.415 15.242h-7.115v2.56h7.115v-2.56zM17.3 15.242c-1.403 0-2.574 1.128-2.574 2.555h2.56c0 0-0 0.002-0.001 0.004s-0.001 0.004-0.002 0.005-0.002 0.002 0 0.001 0.004-0.003 0.006-0.004c0.001-0 0.002-0.001 0.003-0.001s0.003-0.001 0.007-0.001v-2.56zM14.727 17.797c0 1.427 1.171 2.555 2.574 2.555v-2.56c-0.003 0-0.006-0-0.007-0.001s-0.002-0.001-0.003-0.001-0.004-0.002-0.006-0.004c-0.002-0.002-0.001-0.002-0 0.001 0.001 0.001 0.001 0.003 0.002 0.005s0.001 0.004 0.001 0.004h-2.56zM17.3 20.352h5.174v-2.56h-5.174v2.56zM22.475 20.352c-0.511 0-0.957-0.413-0.957-0.961h2.56c0-0.9-0.735-1.599-1.603-1.599v2.56zM21.518 19.391c0-0.548 0.446-0.961 0.957-0.961v2.56c0.868 0 1.603-0.698 1.603-1.599h-2.56z"></path>
<path fill="#6d95fc" style="fill: var(--color1, #6d95fc)" d="M10.186 20.028h-9.702c-0.179 0-0.323-0.143-0.323-0.319s0.145-0.319 0.323-0.319h9.702c0.179 0 0.323 0.143 0.323 0.319s-0.145 0.319-0.323 0.319z"></path>
<path fill="#fbfbfb" style="fill: var(--color3, #fbfbfb)" d="M10.186 18.748h-9.702v2.56h9.702v-2.56zM0.483 18.748c0.511 0 0.957 0.413 0.957 0.961h-2.56c0 0.901 0.736 1.599 1.603 1.599v-2.56zM1.44 19.709c0 0.548-0.446 0.961-0.957 0.961v-2.56c-0.868 0-1.603 0.698-1.603 1.599h2.56zM0.483 20.671h9.702v-2.56h-9.702v2.56zM10.186 20.671c-0.511 0-0.957-0.413-0.957-0.961h2.56c0-0.901-0.736-1.599-1.603-1.599v2.56zM9.229 19.709c0-0.548 0.446-0.961 0.957-0.961v2.56c0.868 0 1.603-0.698 1.603-1.599h-2.56z"></path>
<path fill="#6d95fc" style="fill: var(--color1, #6d95fc)" d="M10.186 18.116h-9.702c-0.179 0-0.323-0.143-0.323-0.319s0.145-0.319 0.323-0.319h9.702c0.179 0 0.323 0.143 0.323 0.319s-0.145 0.319-0.323 0.319z"></path>
<path fill="#fbfbfb" style="fill: var(--color3, #fbfbfb)" d="M10.186 16.836h-9.702v2.56h9.702v-2.56zM0.483 16.836c0.511 0 0.957 0.413 0.957 0.961h-2.56c0 0.901 0.736 1.599 1.603 1.599v-2.56zM1.44 17.797c0 0.548-0.446 0.961-0.957 0.961v-2.56c-0.868 0-1.603 0.698-1.603 1.599h2.56zM0.483 18.758h9.702v-2.56h-9.702v2.56zM10.186 18.758c-0.511 0-0.957-0.413-0.957-0.961h2.56c0-0.901-0.736-1.599-1.603-1.599v2.56zM9.229 17.797c0-0.548 0.446-0.961 0.957-0.961v2.56c0.868 0 1.603-0.698 1.603-1.599h-2.56z"></path>
<path fill="#6d95fc" style="fill: var(--color1, #6d95fc)" d="M10.186 16.203h-9.702c-0.179 0-0.323-0.143-0.323-0.319s0.145-0.319 0.323-0.319h9.702c0.179 0 0.323 0.143 0.323 0.319s-0.145 0.319-0.323 0.319z"></path>
<path fill="#fbfbfb" style="fill: var(--color3, #fbfbfb)" d="M10.186 14.923h-9.702v2.56h9.702v-2.56zM0.483 14.923c0.511 0 0.957 0.413 0.957 0.961h-2.56c0 0.9 0.736 1.599 1.603 1.599v-2.56zM1.44 15.884c0 0.548-0.446 0.961-0.957 0.961v-2.56c-0.868 0-1.603 0.698-1.603 1.599h2.56zM0.483 16.846h9.702v-2.56h-9.702v2.56zM10.186 16.846c-0.511 0-0.957-0.413-0.957-0.961h2.56c0-0.9-0.735-1.599-1.603-1.599v2.56zM9.229 15.884c0-0.548 0.446-0.961 0.957-0.961v2.56c0.868 0 1.603-0.698 1.603-1.599h-2.56z"></path>
<path fill="#6d95fc" style="fill: var(--color1, #6d95fc)" d="M18.918 30.548h-7.115c-0.179 0-0.323-0.143-0.323-0.319v-3.825c0-0.176 0.145-0.319 0.323-0.319h7.115c0.179 0 0.323 0.143 0.323 0.319v3.825c0 0.176-0.145 0.319-0.323 0.319zM12.126 29.91h6.468v-3.188h-6.468v3.188z"></path>
<path fill="#fbfbfb" style="fill: var(--color3, #fbfbfb)" d="M12.126 29.91h-1.28v1.28h1.28v-1.28zM18.594 29.91v1.28h1.28v-1.28h-1.28zM18.594 26.723h1.28v-1.28h-1.28v1.28zM12.126 26.723v-1.28h-1.28v1.28h1.28zM18.918 29.268h-7.115v2.56h7.115v-2.56zM11.803 29.268c0.511 0 0.957 0.413 0.957 0.961h-2.56c0 0.901 0.736 1.599 1.603 1.599v-2.56zM12.759 30.229v-3.825h-2.56v3.825h2.56zM12.759 26.404c0 0.548-0.446 0.961-0.957 0.961v-2.56c-0.868 0-1.603 0.698-1.603 1.599h2.56zM11.803 27.365h7.115v-2.56h-7.115v2.56zM18.918 27.365c-0.511 0-0.957-0.413-0.957-0.961h2.56c0-0.9-0.735-1.599-1.603-1.599v2.56zM17.961 26.404v3.825h2.56v-3.825h-2.56zM17.961 30.229c0-0.548 0.446-0.961 0.957-0.961v2.56c0.868 0 1.603-0.698 1.603-1.599h-2.56zM12.126 31.19h6.468v-2.56h-6.468v2.56zM19.874 29.91v-3.188h-2.56v3.188h2.56zM18.594 25.443h-6.468v2.56h6.468v-2.56zM10.846 26.723v3.188h2.56v-3.188h-2.56z"></path>
<path fill="#6d95fc" style="fill: var(--color1, #6d95fc)" d="M17.3 30.548h-3.881c-0.179 0-0.323-0.143-0.323-0.319v-3.825c0-0.176 0.145-0.319 0.323-0.319h3.881c0.179 0 0.323 0.143 0.323 0.319v3.825c0 0.176-0.145 0.319-0.323 0.319zM13.743 29.91h3.234v-3.188h-3.234v3.188z"></path>
<path fill="#fbfbfb" style="fill: var(--color3, #fbfbfb)" d="M13.743 29.91h-1.28v1.28h1.28v-1.28zM16.977 29.91v1.28h1.28v-1.28h-1.28zM16.977 26.723h1.28v-1.28h-1.28v1.28zM13.743 26.723v-1.28h-1.28v1.28h1.28zM17.3 29.268h-3.881v2.56h3.881v-2.56zM13.42 29.268c0.511 0 0.957 0.413 0.957 0.961h-2.56c0 0.901 0.736 1.599 1.603 1.599v-2.56zM14.376 30.229v-3.825h-2.56v3.825h2.56zM14.376 26.404c0 0.548-0.446 0.961-0.957 0.961v-2.56c-0.868 0-1.603 0.698-1.603 1.599h2.56zM13.42 27.365h3.881v-2.56h-3.881v2.56zM17.3 27.365c-0.511 0-0.957-0.413-0.957-0.961h2.56c0-0.9-0.735-1.599-1.603-1.599v2.56zM16.344 26.404v3.825h2.56v-3.825h-2.56zM16.344 30.229c0-0.548 0.446-0.961 0.957-0.961v2.56c0.868 0 1.603-0.698 1.603-1.599h-2.56zM13.743 31.19h3.234v-2.56h-3.234v2.56zM18.257 29.91v-3.188h-2.56v3.188h2.56zM16.977 25.443h-3.234v2.56h3.234v-2.56zM12.463 26.723v3.188h2.56v-3.188h-2.56z"></path>
<path fill="#6d95fc" style="fill: var(--color1, #6d95fc)" d="M19.887 31.823h-9.055c-0.535 0-0.97-0.429-0.97-0.956s0.435-0.956 0.97-0.956h9.055c0.535 0 0.97 0.429 0.97 0.956s-0.435 0.956-0.97 0.956zM10.832 30.548c-0.178 0-0.323 0.143-0.323 0.319s0.145 0.319 0.323 0.319h9.055c0.178 0 0.323-0.143 0.323-0.319s-0.145-0.319-0.323-0.319h-9.055z"></path>
<path fill="#fbfbfb" style="fill: var(--color3, #fbfbfb)" d="M19.887 30.543h-9.055v2.56h9.055v-2.56zM10.832 30.543c0.155 0 0.31 0.127 0.31 0.324h-2.56c0 1.251 1.026 2.236 2.25 2.236v-2.56zM11.142 30.867c0 0.197-0.155 0.324-0.31 0.324v-2.56c-1.224 0-2.25 0.985-2.25 2.236h2.56zM10.832 31.19h9.055v-2.56h-9.055v2.56zM19.887 31.19c-0.154 0-0.31-0.127-0.31-0.324h2.56c0-1.252-1.026-2.236-2.25-2.236v2.56zM19.578 30.867c0-0.197 0.155-0.324 0.31-0.324v2.56c1.224 0 2.25-0.985 2.25-2.236h-2.56zM10.832 29.268c-0.868 0-1.603 0.699-1.603 1.599h2.56c0 0.548-0.445 0.961-0.957 0.961v-2.56zM9.229 30.867c0 0.9 0.736 1.599 1.603 1.599v-2.56c0.511 0 0.957 0.413 0.957 0.961h-2.56zM10.832 32.465h9.055v-2.56h-9.055v2.56zM19.887 32.465c0.868 0 1.603-0.699 1.603-1.599h-2.56c0-0.548 0.445-0.961 0.957-0.961v2.56zM21.491 30.867c0-0.9-0.736-1.599-1.603-1.599v2.56c-0.511 0-0.957-0.413-0.957-0.961h2.56zM19.887 29.268h-9.055v2.56h9.055v-2.56z"></path>
</symbol>
<symbol id="icon-Video" viewBox="0 0 33 32">
<path fill="#6d95fc" style="fill: var(--color1, #6d95fc)" d="M16.089 10.288c-0.142 0-0.284-0.036-0.413-0.107 0 0 0 0 0 0l0.413 0.107zM16.089 10.288c0.142 0 0.284-0.036 0.413-0.107l1.199-0.663c0.259-0.143 0.413-0.4 0.413-0.686s-0.155-0.543-0.413-0.686l-1.199-0.663c0 0 0 0 0 0l-0.413 2.806zM16.032 8.074h0c0.013-0.007 0.033-0.015 0.057-0.015 0.017 0 0.036 0.004 0.057 0.015h0l1.199 0.663c0.050 0.027 0.057 0.071 0.057 0.094s-0.007 0.067-0.057 0.094v0l-1.199 0.663c-0.050 0.027-0.093 0.012-0.114 0v-0c-0.022-0.012-0.057-0.040-0.057-0.094v-1.327c0-0.055 0.035-0.082 0.057-0.094z"></path>
<path fill="#6d95fc" style="fill: var(--color1, #6d95fc)" d="M13.168 8.832c0 1.86 1.58 3.373 3.521 3.373s3.521-1.513 3.521-3.373-1.58-3.373-3.52-3.373c-1.941 0-3.521 1.513-3.521 3.373zM13.881 8.832c0-1.483 1.259-2.689 2.808-2.689s2.808 1.207 2.808 2.689c0 1.483-1.259 2.689-2.808 2.689s-2.808-1.207-2.808-2.689z"></path>
<path fill="#6d95fc" style="fill: var(--color1, #6d95fc)" d="M5.899 17.342h21.58c0.197 0 0.356-0.153 0.356-0.342v-16.337c0-0.189-0.16-0.342-0.356-0.342h-21.58c-0.196 0-0.356 0.153-0.356 0.342v16.337c0 0.189 0.16 0.342 0.356 0.342zM27.122 1.005v15.654h-20.867v-15.654h20.867z"></path>
<path fill="#6d95fc" style="fill: var(--color1, #6d95fc)" d="M7.987 4.672h2.784c0.196 0 0.356-0.153 0.356-0.342v-1.667c0-0.189-0.16-0.342-0.356-0.342h-2.784c-0.196 0-0.356 0.153-0.356 0.342v1.667c0 0.189 0.16 0.342 0.356 0.342zM10.415 3.005v0.984h-2.072v-0.984h2.072z"></path>
<path fill="#6d95fc" style="fill: var(--color1, #6d95fc)" d="M12.86 4.672h2.784c0.196 0 0.356-0.153 0.356-0.342v-1.667c0-0.189-0.16-0.342-0.356-0.342h-2.784c-0.196 0-0.356 0.153-0.356 0.342v1.667c0 0.189 0.16 0.342 0.356 0.342zM15.288 3.005v0.984h-2.072v-0.984h2.072z"></path>
<path fill="#fff" style="fill: var(--color2, #fff)" d="M2.743 26.344h27.891c1.335 0 2.422-1.040 2.422-2.32v-2.023c0-0.189-0.16-0.342-0.356-0.342h-32.022c-0.196 0-0.356 0.153-0.356 0.342v2.023c0 1.279 1.087 2.32 2.421 2.32zM1.034 24.024v-1.681h31.309v1.681c0 0.902-0.766 1.637-1.709 1.637h-27.891c-0.943 0-1.709-0.734-1.709-1.637z"></path>
<path fill="#fff" style="fill: var(--color2, #fff)" d="M0.678 22.343h32.022c0.197 0 0.356-0.153 0.356-0.342v-14.903c0-1.531-1.3-2.776-2.897-2.776h-2.68c-0.197 0-0.356 0.153-0.356 0.342s0.16 0.342 0.356 0.342h2.68c1.205 0 2.185 0.939 2.185 2.092v14.562h-31.309v-14.562c0-1.153 0.98-2.092 2.185-2.092h2.68c0.196 0 0.356-0.153 0.356-0.342s-0.16-0.342-0.356-0.342h-2.68c-1.597 0-2.897 1.245-2.897 2.776v14.903c0 0.189 0.16 0.342 0.356 0.342z"></path>
<path fill="#6d95fc" style="fill: var(--color1, #6d95fc)" d="M17.733 4.672h2.785c0.197 0 0.356-0.153 0.356-0.342v-1.667c0-0.189-0.16-0.342-0.356-0.342h-2.785c-0.197 0-0.356 0.153-0.356 0.342v1.667c0 0.189 0.16 0.342 0.356 0.342zM20.161 3.005v0.984h-2.072v-0.984h2.072z"></path>
<path fill="#6d95fc" style="fill: var(--color1, #6d95fc)" d="M25.39 4.664h-2.785c-0.192 0-0.348-0.149-0.348-0.333v-1.667c0-0.184 0.156-0.333 0.348-0.333h2.785c0.192 0 0.348 0.149 0.348 0.333v1.667c0 0.184-0.156 0.333-0.348 0.333zM22.954 3.997h2.088v-1h-2.088v1z"></path>
<path fill="#6d95fc" style="fill: var(--color1, #6d95fc)" d="M10.772 15.333h-2.784c-0.192 0-0.348-0.149-0.348-0.333v-1.667c0-0.184 0.156-0.333 0.348-0.333h2.784c0.192 0 0.348 0.149 0.348 0.333v1.667c0 0.184-0.156 0.333-0.348 0.333zM8.335 14.666h2.088v-1h-2.088v1z"></path>
<path fill="#6d95fc" style="fill: var(--color1, #6d95fc)" d="M15.645 15.333h-2.784c-0.192 0-0.348-0.149-0.348-0.333v-1.667c0-0.184 0.156-0.333 0.348-0.333h2.784c0.192 0 0.348 0.149 0.348 0.333v1.667c0 0.184-0.156 0.333-0.348 0.333zM13.208 14.666h2.088v-1h-2.088v1z"></path>
<path fill="#6d95fc" style="fill: var(--color1, #6d95fc)" d="M20.517 15.333h-2.785c-0.192 0-0.348-0.149-0.348-0.333v-1.667c0-0.184 0.156-0.333 0.348-0.333h2.785c0.192 0 0.348 0.149 0.348 0.333v1.667c0 0.184-0.156 0.333-0.348 0.333zM18.081 14.666h2.088v-1h-2.088v1z"></path>
<path fill="#6d95fc" style="fill: var(--color1, #6d95fc)" d="M25.39 15.333h-2.785c-0.192 0-0.348-0.149-0.348-0.333v-1.667c0-0.184 0.156-0.333 0.348-0.333h2.785c0.192 0 0.348 0.149 0.348 0.333v1.667c0 0.184-0.156 0.333-0.348 0.333zM22.954 14.666h2.088v-1h-2.088v1z"></path>
<path fill="#fff" style="fill: var(--color2, #fff)" d="M12.86 30.345h7.657c0.197 0 0.356-0.153 0.356-0.342v-4.001c0-0.189-0.16-0.342-0.356-0.342h-7.657c-0.196 0-0.356 0.153-0.356 0.342v4.001c0 0.189 0.16 0.342 0.356 0.342zM20.161 26.344v3.318h-6.945v-3.318h6.945z"></path>
<path fill="#fff" style="fill: var(--color2, #fff)" d="M14.601 30.345h4.177c0.197 0 0.356-0.153 0.356-0.342v-4.001c0-0.189-0.16-0.342-0.356-0.342h-4.177c-0.196 0-0.356 0.153-0.356 0.342v4.001c0 0.189 0.16 0.342 0.356 0.342zM18.421 26.344v3.318h-3.464v-3.318h3.464z"></path>
<path fill="#fff" style="fill: var(--color2, #fff)" d="M11.816 31.678h9.746c0.58 0 1.052-0.452 1.052-1.009s-0.472-1.008-1.052-1.008h-9.746c-0.58 0-1.052 0.452-1.052 1.008s0.472 1.009 1.052 1.009zM11.476 30.67c0-0.179 0.152-0.325 0.34-0.325h9.746c0.188 0 0.34 0.146 0.34 0.325s-0.152 0.325-0.34 0.325h-9.746c-0.188 0-0.34-0.146-0.34-0.325z"></path>
</symbol>
<symbol id="icon-Search" viewBox="0 0 31 32">
<path fill="#6d95fc" style="fill: var(--color1, #6d95fc)" d="M11.489 0.533c3.047 0 5.97 1.21 8.124 3.365s3.365 5.077 3.365 8.124c0 2.846-1.043 5.462-2.758 7.477l0.477 0.477h1.396l8.838 8.838-2.651 2.651-8.838-8.838v-1.396l-0.477-0.477c-2.015 1.715-4.631 2.758-7.477 2.758-3.047 0-5.97-1.211-8.124-3.365s-3.365-5.077-3.365-8.124c0-3.047 1.21-5.97 3.365-8.124s5.077-3.365 8.124-3.365zM11.489 4.069c-4.419 0-7.954 3.535-7.954 7.954s3.535 7.954 7.954 7.954c4.419 0 7.954-3.535 7.954-7.954s-3.535-7.954-7.954-7.954z"></path>
</symbol>
<symbol id="icon-gmail" viewBox="0 0 31 32">
<path fill="#6d95fc" style="fill: var(--color1, #6d95fc)" d="M26.087 23.811h-2.609v-11.413l-7.826 4.891-7.826-4.891v11.413h-2.609v-15.652h1.565l8.87 5.543 8.87-5.543h1.565zM26.087 5.55h-20.87c-1.448 0-2.609 1.161-2.609 2.609v15.652c0 0.692 0.275 1.355 0.764 1.845s1.153 0.764 1.845 0.764h20.87c0.692 0 1.355-0.275 1.845-0.764s0.764-1.153 0.764-1.845v-15.652c0-1.448-1.174-2.609-2.609-2.609z"></path>
</symbol>
<symbol id="icon-Group" viewBox="0 0 32 32">
<path fill="#6d95fc" style="fill: var(--color1, #6d95fc)" d="M20.46 16.087c-0.254-0.254-0.656-0.254-0.91-0.013l-4.618 4.551-2.195-2.222c-0.254-0.254-0.656-0.254-0.91-0.013-0.254 0.254-0.254 0.656-0.013 0.91l3.092 3.145 5.541-5.461c0.268-0.228 0.268-0.642 0.013-0.897l0-0z"></path>
<path fill="#fff" style="fill: var(--color2, #fff); stroke: var(--color4, #000)" stroke="#000" stroke-linejoin="miter" stroke-linecap="butt" stroke-miterlimit="4" stroke-width="0.3556" d="M17.613 4.931v0c-0.416 0.401-0.942 0.64-1.492 0.625-0.57-0.008-1.108-0.281-1.499-0.681s-0.65-0.943-0.643-1.507v-0.002h0c0.029-1.154 1.019-2.114 2.172-2.114l1.462 3.679zM17.613 4.931l0.002-0.002M17.613 4.931l0.002-0.002M17.615 4.929c0.415-0.415 0.681-0.966 0.681-1.518 0-0.556-0.22-1.096-0.628-1.504-0.404-0.404-0.943-0.654-1.518-0.654l1.464 3.676zM19.239 3.422v0 0.003c0 0.79-0.351 1.575-0.963 2.175-0.586 0.56-1.359 0.887-2.112 0.887h-0.052c-1.656-0.026-3.088-1.498-3.063-3.139v-0c0.025-1.682 1.417-3.037 3.102-3.037h0.025c0.809 0.013 1.58 0.342 2.163 0.937v0l0.001 0.001c0.596 0.596 0.911 1.367 0.898 2.174z"></path>
<path fill="#fff" style="fill: var(--color2, #fff); stroke: var(--color4, #000)" stroke="#000" stroke-linejoin="miter" stroke-linecap="butt" stroke-miterlimit="4" stroke-width="0.3556" d="M21.236 13.193h-0.008c-0.262-0.004-0.472-0.207-0.484-0.468v-2.508l-0.005-0.021c-0.012-0.049-0.041-0.093-0.068-0.127-0.030-0.038-0.070-0.078-0.121-0.119-0.102-0.082-0.251-0.168-0.461-0.24l-0.001-0-0-0-0.001-0-0.207-0.070c-0.129-0.044-0.309-0.104-0.51-0.172-0.403-0.136-0.896-0.3-1.252-0.414l-0.103-0.033-1.852 1.852-1.852-1.852-0.103 0.033c-0.356 0.114-0.849 0.278-1.252 0.414-0.202 0.068-0.381 0.129-0.511 0.172l-0.207 0.070c-0.426 0.142-0.627 0.365-0.655 0.558l-0.002 0.012v2.449c0 0.25-0.215 0.465-0.465 0.465-0.252 0-0.465-0.204-0.465-0.465v-2.399l-0-0.003c-0.011-0.382 0.212-1.137 1.297-1.499v0l0.001-0 0-0 0-0 0.001-0 0.004-0.001 0.299-0.101c0.185-0.063 0.438-0.147 0.704-0.237 0.534-0.179 1.125-0.376 1.357-0.449v0l0.001-0 0.271-0.087 1.588 1.588 1.588-1.588 0.273 0.088c0.232 0.073 0.823 0.27 1.357 0.449 0.267 0.089 0.519 0.174 0.704 0.237l0.305 0.103c1.089 0.363 1.32 1.12 1.298 1.494l-0 0.005v2.401c0 0.252-0.204 0.465-0.465 0.465z"></path>
<path fill="#fff" style="fill: var(--color2, #fff); stroke: var(--color4, #000)" stroke="#000" stroke-linejoin="miter" stroke-linecap="butt" stroke-miterlimit="4" stroke-width="0.3556" d="M7.332 23.429h-0c-0.416 0.402-0.955 0.64-1.492 0.625-0.57-0.008-1.108-0.281-1.499-0.681s-0.65-0.943-0.643-1.507l3.634 1.562zM7.332 23.429l0.002-0.002M7.332 23.429l0.002-0.002M7.334 23.427c0.414-0.414 0.68-0.965 0.681-1.515 0.014-0.563-0.224-1.088-0.625-1.504v0M7.334 23.427l0.056-3.020M7.39 20.407l-0.002-0.002M7.39 20.407l-0.002-0.002M7.388 20.405c-0.404-0.404-0.943-0.654-1.504-0.654h-0.013c-1.165 0-2.157 0.959-2.172 2.116l3.69-1.462zM2.768 21.859v-0c0.025-1.682 1.417-3.037 3.102-3.037h0.025c0.809 0.013 1.58 0.342 2.163 0.937l-0 0 0.001 0.001c0.596 0.596 0.911 1.367 0.898 2.174v0 0.003c0 0.79-0.351 1.575-0.963 2.174-0.586 0.56-1.359 0.887-2.112 0.887h-0.051c-1.658-0.039-3.089-1.5-3.063-3.139z"></path>
<path fill="#fff" style="fill: var(--color2, #fff); stroke: var(--color4, #000)" stroke="#000" stroke-linejoin="miter" stroke-linecap="butt" stroke-miterlimit="4" stroke-width="0.3556" d="M10.957 31.69h-0.008c-0.259-0.004-0.457-0.204-0.457-0.465v-2.512l-0.005-0.021c-0.012-0.049-0.041-0.093-0.068-0.127-0.030-0.038-0.070-0.078-0.121-0.119-0.102-0.081-0.251-0.168-0.461-0.24l-0.001-0-0-0-0.003-0.001-0.204-0.069c-0.129-0.044-0.309-0.104-0.511-0.172-0.403-0.136-0.896-0.3-1.252-0.414l-0.103-0.033-1.852 1.852-1.852-1.852-0.103 0.033c-0.356 0.114-0.849 0.278-1.252 0.414-0.202 0.068-0.381 0.128-0.51 0.172l-0.207 0.070c-0.426 0.142-0.627 0.365-0.655 0.558l-0.002 0.012v2.449c0 0.25-0.215 0.465-0.465 0.465-0.252 0-0.465-0.204-0.465-0.465v-2.398l-0-0.003c-0.011-0.382 0.212-1.137 1.297-1.499v0l0.001-0h0l0-0 0.001-0 0.004-0.001 0.297-0.101c0.184-0.063 0.435-0.147 0.7-0.237 0.531-0.179 1.118-0.376 1.35-0.449v0l0.001-0 0.271-0.087 1.589 1.589 1.575-1.589 0.272 0.087c0.232 0.073 0.823 0.27 1.357 0.449 0.267 0.090 0.519 0.174 0.704 0.237l0.305 0.103c1.089 0.363 1.32 1.12 1.298 1.494l-0 0.005v2.401c0 0.252-0.204 0.465-0.465 0.465z"></path>
<path fill="#fff" style="fill: var(--color2, #fff); stroke: var(--color4, #000)" stroke="#000" stroke-linejoin="miter" stroke-linecap="butt" stroke-miterlimit="4" stroke-width="0.3556" d="M27.937 20.407l-0 0c0.405 0.419 0.625 0.945 0.625 1.502 0 0.551-0.267 1.103-0.681 1.518l-0.002 0.002v-0c-0.416 0.402-0.956 0.64-1.492 0.625-0.57-0.008-1.108-0.281-1.499-0.681s-0.65-0.943-0.643-1.507c0-0 0-0 0-0l0.178 0.002c0.013-1.044 0.924-1.941 1.994-1.941l1.52 0.479zM27.937 20.407l-0.002-0.002c-0.404-0.404-0.943-0.654-1.518-0.654l1.52 0.657zM29.491 21.92h-0v0.003c0 0.79-0.351 1.575-0.963 2.174-0.586 0.56-1.359 0.887-2.112 0.887h-0.052c-1.656-0.026-3.088-1.498-3.063-3.139v-0c0.025-1.682 1.417-3.037 3.102-3.037h0.025c0.809 0.013 1.58 0.342 2.163 0.937v0l0.001 0.001c0.596 0.596 0.911 1.367 0.898 2.174z"></path>
<path fill="#fff" style="fill: var(--color2, #fff); stroke: var(--color4, #000)" stroke="#000" stroke-linejoin="miter" stroke-linecap="butt" stroke-miterlimit="4" stroke-width="0.3556" d="M31.49 31.69h-0.008c-0.259-0.004-0.457-0.204-0.457-0.465v-2.512l-0.005-0.021c-0.012-0.049-0.041-0.093-0.068-0.127-0.030-0.038-0.070-0.078-0.121-0.119-0.102-0.081-0.251-0.168-0.461-0.24l-0.001-0-0-0-0.001-0-0.207-0.070c-0.129-0.044-0.309-0.104-0.51-0.172-0.403-0.136-0.896-0.3-1.252-0.414l-0.103-0.033-1.852 1.852-1.852-1.852-0.103 0.033c-0.356 0.114-0.849 0.278-1.252 0.414-0.202 0.068-0.381 0.128-0.511 0.172l-0.207 0.070c-0.426 0.142-0.627 0.365-0.655 0.558l-0.002 0.012v2.449c0 0.25-0.215 0.465-0.465 0.465-0.252 0-0.465-0.204-0.465-0.465v-2.398l-0-0.003c-0.011-0.382 0.212-1.137 1.297-1.499v0l0.001-0h0l0-0 0.001-0 0.004-0.001 0.297-0.101c0.184-0.063 0.435-0.147 0.7-0.237 0.531-0.179 1.118-0.376 1.35-0.449v0l0.001-0 0.271-0.087 1.589 1.589 1.575-1.589 0.272 0.087c0.232 0.073 0.823 0.27 1.357 0.449 0.267 0.090 0.519 0.174 0.704 0.237l0.305 0.103c1.089 0.363 1.32 1.12 1.298 1.494l-0 0.005v2.401c0 0.252-0.204 0.465-0.465 0.465z"></path>
<path fill="#6d95fc" style="fill: var(--color1, #6d95fc)" d="M9.029 13.343c0.214-0.254 0.442-0.509 0.683-0.736 0.107-0.094 0.107-0.268 0.013-0.361-0.094-0.107-0.268-0.107-0.361-0.013-0.254 0.241-0.495 0.509-0.723 0.776-0.094 0.107-0.080 0.268 0.027 0.361 0.053 0.040 0.107 0.053 0.161 0.053 0.080 0.013 0.147-0.013 0.201-0.080z"></path>
<path fill="#6d95fc" style="fill: var(--color1, #6d95fc)" d="M6.727 18.082c0.12 0 0.241-0.094 0.254-0.214 0.054-0.335 0.12-0.656 0.214-0.977 0.040-0.134-0.040-0.281-0.187-0.321-0.134-0.040-0.281 0.040-0.321 0.187-0.094 0.335-0.161 0.683-0.214 1.044-0.027 0.147 0.080 0.268 0.214 0.294 0.013-0.013 0.027-0.013 0.040-0.013z"></path>
<path fill="#6d95fc" style="fill: var(--color1, #6d95fc)" d="M7.463 15.619c0.094 0 0.187-0.054 0.241-0.147 0.134-0.308 0.294-0.602 0.468-0.897 0.067-0.12 0.027-0.281-0.094-0.348s-0.281-0.027-0.348 0.094c-0.174 0.308-0.348 0.616-0.495 0.937-0.054 0.134 0 0.281 0.134 0.348 0.027 0 0.054 0.013 0.094 0.013z"></path>
<path fill="#6d95fc" style="fill: var(--color1, #6d95fc)" d="M19.898 27.605l-0.094 0.040c-0.134 0.054-0.187 0.214-0.134 0.335 0.040 0.094 0.134 0.161 0.241 0.161 0.040 0 0.067-0.013 0.107-0.027l0.107-0.040c0.134-0.053 0.187-0.214 0.134-0.348-0.080-0.134-0.228-0.187-0.361-0.12z"></path>
<path fill="#6d95fc" style="fill: var(--color1, #6d95fc)" d="M12.47 27.645c-0.134-0.053-0.281 0-0.335 0.134s0 0.281 0.134 0.335c0.321 0.134 0.656 0.268 0.991 0.361 0.027 0.013 0.054 0.013 0.080 0.013 0.107 0 0.214-0.067 0.241-0.187 0.040-0.134-0.040-0.281-0.174-0.321-0.308-0.094-0.629-0.201-0.937-0.335z"></path>
<path fill="#6d95fc" style="fill: var(--color1, #6d95fc)" d="M18.372 28.127c-0.321 0.080-0.656 0.147-0.991 0.187-0.147 0.013-0.241 0.147-0.228 0.294 0.013 0.134 0.134 0.228 0.254 0.228h0.040c0.348-0.054 0.696-0.12 1.044-0.201 0.134-0.040 0.228-0.174 0.187-0.308-0.027-0.161-0.174-0.241-0.308-0.201h0z"></path>
<path fill="#6d95fc" style="fill: var(--color1, #6d95fc)" d="M14.878 28.315c-0.147-0.013-0.268 0.080-0.294 0.228-0.013 0.147 0.080 0.268 0.228 0.294 0.348 0.040 0.696 0.080 1.057 0.080h0.013c0.134 0 0.254-0.107 0.254-0.254s-0.107-0.268-0.254-0.268c-0.335-0.013-0.669-0.040-1.004-0.080z"></path>
<path fill="#6d95fc" style="fill: var(--color1, #6d95fc)" d="M24.596 15.512c0.040 0.094 0.134 0.147 0.241 0.147 0.040 0 0.067-0.013 0.107-0.027 0.134-0.054 0.187-0.214 0.134-0.335-0.147-0.321-0.308-0.642-0.482-0.937-0.067-0.12-0.228-0.161-0.348-0.094s-0.161 0.228-0.094 0.348c0.161 0.294 0.308 0.589 0.442 0.897z"></path>
<path fill="#6d95fc" style="fill: var(--color1, #6d95fc)" d="M25.546 17.928h0.040c0.147-0.027 0.241-0.161 0.214-0.294-0.054-0.335-0.12-0.669-0.201-0.991-0.040-0.134-0.174-0.214-0.321-0.187-0.134 0.040-0.214 0.174-0.187 0.321 0.080 0.308 0.147 0.616 0.201 0.937 0.027 0.12 0.134 0.214 0.254 0.214v0z"></path>
<path fill="#6d95fc" style="fill: var(--color1, #6d95fc)" d="M22.964 12.272c-0.107-0.094-0.268-0.094-0.361 0-0.094 0.107-0.094 0.268 0 0.361 0.241 0.228 0.468 0.482 0.683 0.736 0.054 0.067 0.12 0.094 0.201 0.094 0.054 0 0.12-0.013 0.161-0.054 0.107-0.094 0.12-0.254 0.040-0.361-0.228-0.268-0.468-0.522-0.723-0.776z"></path>
</symbol>
<symbol id="icon-Groupssa" viewBox="0 0 35 32">
<path d="M15.034 9.639c-0.081 0.078-0.126 0.186-0.126 0.298s0.045 0.22 0.126 0.298c0.081 0.078 0.19 0.12 0.302 0.117l-0.302-0.713zM15.034 9.639c0.081-0.078 0.19-0.12 0.302-0.117l-0.302 0.117zM29.344 8.257l-3.034-0.285-1.206-2.775c-0.039-0.091-0.129-0.151-0.229-0.15h-0.002c-0.097-0-0.185 0.058-0.222 0.148l-0.001 0.003-0-0-1.205 2.775-3.015 0.284-0.003-0.035 0.001 0.035c-0.1 0.008-0.184 0.075-0.216 0.169s-0.003 0.198 0.072 0.264l0 0 2.275 2-0.656 2.915-0.008 0.035c-0.021 0.097 0.017 0.197 0.098 0.255s0.188 0.064 0.274 0.013c0 0 0-0 0-0l2.604-1.54 2.613 1.541c0.037 0.022 0.079 0.034 0.123 0.034 0.053 0 0.105-0.017 0.147-0.048l0-0c0.080-0.058 0.117-0.158 0.095-0.253l-0-0.002-0.66-2.951 2.274-2c0-0 0-0 0-0 0.073-0.066 0.101-0.169 0.070-0.263l-0.192-0.168zM29.344 8.257c0.089 0.017 0.163 0.081 0.192 0.168l-0.192-0.168zM20.43 5.85l-0-0-2.477-2.47c-0-0-0-0-0.001-0.001-0.095-0.098-0.095-0.254 0-0.352 0.046-0.046 0.11-0.072 0.176-0.072s0.129 0.026 0.176 0.073l0 0 2.482 2.478c0.043 0.046 0.066 0.106 0.066 0.169 0 0.066-0.026 0.129-0.073 0.175l-0 0c-0.046 0.046-0.109 0.072-0.174 0.072s-0.128-0.026-0.174-0.072zM15.336 10.185h-0.002l-0.002 0c-0.068 0.002-0.133-0.023-0.181-0.070l-0-0c-0.048-0.047-0.075-0.111-0.075-0.178s0.027-0.132 0.075-0.178l0-0c0.048-0.047 0.114-0.072 0.181-0.070l0.002 0h3.473c0.134 0.005 0.239 0.115 0.239 0.248s-0.106 0.243-0.239 0.248h-3.471zM34.594 9.762c0.043 0.043 0.068 0.099 0.072 0.158v0.018c0 0.065-0.026 0.128-0.072 0.175v0c-0.047 0.047-0.11 0.073-0.176 0.073h-3.472c-0.134-0.005-0.239-0.115-0.239-0.248s0.106-0.243 0.239-0.248h3.473c0.066 0 0.129 0.026 0.176 0.073zM31.445 3.028c0.093-0.092 0.24-0.097 0.339-0.015l0.016 0.015c0.047 0.047 0.073 0.11 0.073 0.175s-0.026 0.129-0.073 0.176l-0 0-2.476 2.469c-0 0-0 0-0 0-0.048 0.047-0.112 0.073-0.179 0.073h-0c-0.101-0-0.192-0.061-0.23-0.154l-0-0c-0.038-0.092-0.017-0.199 0.054-0.27l2.478-2.47c0-0 0-0 0-0zM24.875 0.167h0c0.067-0 0.13 0.026 0.177 0.072s0.074 0.11 0.074 0.176v3.102c-0.005 0.134-0.116 0.24-0.25 0.24s-0.245-0.106-0.25-0.24v-3.102c0-0.136 0.111-0.248 0.249-0.248zM22.376 10.748l-0.605 2.688-1.596-4.623 2.201 1.935zM21.869 31.833v-15.009h6.010v15.009h-6.010zM20.705 31.833h-6.012l0-11.426h6.012v11.426zM0.333 27.571h6.013v4.262h-6.013v-4.262zM13.528 23.989v7.845h-6.014v-7.845h6.014z"></path>
</symbol>
<symbol id="icon-locationPin" viewBox="0 0 23 32">
<path fill="#6d95fc" style="fill: var(--color1, #6d95fc)" d="M11.733 15.2c-1.078 0-2.111-0.421-2.873-1.172s-1.19-1.768-1.19-2.828c0-1.061 0.428-2.078 1.19-2.828s1.796-1.172 2.873-1.172c1.078 0 2.111 0.421 2.873 1.172s1.19 1.768 1.19 2.828c0 0.525-0.105 1.045-0.309 1.531s-0.504 0.926-0.881 1.298c-0.377 0.371-0.825 0.666-1.318 0.867s-1.021 0.305-1.555 0.305zM11.733 0c-3.018 0-5.912 1.18-8.045 3.28s-3.332 4.949-3.332 7.92c0 8.4 11.378 20.8 11.378 20.8s11.378-12.4 11.378-20.8c0-2.97-1.199-5.819-3.332-7.92s-5.028-3.28-8.045-3.28z"></path>
</symbol>
<symbol id="icon-phone" viewBox="0 0 33 32">
<path fill="#6d95fc" style="fill: var(--color1, #6d95fc)" d="M6.625 13.636c2.635 4.954 6.881 9.015 12.060 11.536l4.026-3.851c0.512-0.49 1.226-0.63 1.867-0.438 2.050 0.648 4.246 0.998 6.533 0.998 0.485 0 0.951 0.184 1.294 0.513s0.536 0.774 0.536 1.238v6.127c0 0.464-0.193 0.909-0.536 1.238s-0.809 0.513-1.294 0.513c-8.251 0-16.164-3.135-21.999-8.716s-9.112-13.15-9.112-21.042c0-0.464 0.193-0.909 0.536-1.238s0.809-0.513 1.294-0.513h6.405c0.485 0 0.951 0.184 1.294 0.513s0.536 0.774 0.536 1.238c0 2.188 0.366 4.289 1.043 6.249 0.201 0.613 0.055 1.295-0.457 1.786l-4.026 3.851z"></path>
</symbol>
<symbol id="icon-facebook" viewBox="0 0 32 32">
<path fill="#6d95fc" style="fill: var(--color1, #6d95fc)" d="M16 0.128c-8.8 0-16 7.184-16 16.032 0 8 5.856 14.64 13.504 15.84v-11.2h-4.064v-4.64h4.064v-3.536c0-4.016 2.384-6.224 6.048-6.224 1.744 0 3.568 0.304 3.568 0.304v3.952h-2.016c-1.984 0-2.608 1.232-2.608 2.496v3.008h4.448l-0.72 4.64h-3.728v11.2c3.77-0.596 7.204-2.519 9.68-5.424s3.833-6.599 3.824-10.416c0-8.848-7.2-16.032-16-16.032z"></path>
</symbol>
<symbol id="icon-Vector2" viewBox="0 0 32 32">
<path fill="#6d95fc" style="fill: var(--color1, #6d95fc)" d="M9.28 0h13.44c5.12 0 9.28 4.16 9.28 9.28v13.44c0 2.461-0.978 4.822-2.718 6.562s-4.101 2.718-6.562 2.718h-13.44c-5.12 0-9.28-4.16-9.28-9.28v-13.44c0-2.461 0.978-4.822 2.718-6.562s4.101-2.718 6.562-2.718zM8.96 3.2c-1.528 0-2.993 0.607-4.073 1.687s-1.687 2.545-1.687 4.073v14.080c0 3.184 2.576 5.76 5.76 5.76h14.080c1.528 0 2.993-0.607 4.073-1.687s1.687-2.545 1.687-4.073v-14.080c0-3.184-2.576-5.76-5.76-5.76h-14.080zM24.4 5.6c0.53 0 1.039 0.211 1.414 0.586s0.586 0.884 0.586 1.414c0 0.53-0.211 1.039-0.586 1.414s-0.884 0.586-1.414 0.586c-0.53 0-1.039-0.211-1.414-0.586s-0.586-0.884-0.586-1.414c0-0.53 0.211-1.039 0.586-1.414s0.884-0.586 1.414-0.586zM16 8c2.122 0 4.157 0.843 5.657 2.343s2.343 3.535 2.343 5.657c0 2.122-0.843 4.157-2.343 5.657s-3.535 2.343-5.657 2.343c-2.122 0-4.157-0.843-5.657-2.343s-2.343-3.535-2.343-5.657c0-2.122 0.843-4.157 2.343-5.657s3.535-2.343 5.657-2.343zM16 11.2c-1.273 0-2.494 0.506-3.394 1.406s-1.406 2.121-1.406 3.394c0 1.273 0.506 2.494 1.406 3.394s2.121 1.406 3.394 1.406c1.273 0 2.494-0.506 3.394-1.406s1.406-2.121 1.406-3.394c0-1.273-0.506-2.494-1.406-3.394s-2.121-1.406-3.394-1.406z"></path>
</symbol>
<symbol id="icon-watsup" viewBox="0 0 32 32">
<path fill="#6d95fc" style="fill: var(--color1, #6d95fc)" d="M15.984 0c-8.736 0-15.856 7.12-15.856 15.856 0 2.8 0.736 5.52 2.112 7.92l-2.24 8.224 8.4-2.208c2.32 1.264 4.928 1.936 7.584 1.936 8.736 0 15.856-7.12 15.856-15.856 0-4.24-1.648-8.224-4.64-11.216-2.992-3.008-6.976-4.656-11.216-4.656zM16 2.672c3.52 0 6.816 1.376 9.312 3.872 2.48 2.496 3.856 5.808 3.856 9.328 0 7.264-5.92 13.168-13.184 13.168-2.368 0-4.688-0.624-6.704-1.84l-0.48-0.272-4.992 1.312 1.328-4.864-0.32-0.512c-1.312-2.064-2.016-4.512-2.016-7.008 0.016-7.264 5.92-13.184 13.2-13.184zM10.368 8.528c-0.256 0-0.688 0.096-1.056 0.496-0.352 0.4-1.392 1.376-1.392 3.312 0 1.952 1.424 3.824 1.6 4.096 0.224 0.272 2.816 4.272 6.8 5.968 0.944 0.432 1.68 0.672 2.256 0.848 0.944 0.304 1.808 0.256 2.496 0.16 0.768-0.112 2.336-0.96 2.672-1.888s0.336-1.712 0.24-1.888c-0.112-0.16-0.368-0.256-0.768-0.432-0.4-0.224-2.352-1.184-2.704-1.312-0.368-0.128-0.592-0.192-0.896 0.192-0.256 0.4-1.024 1.296-1.248 1.552-0.24 0.272-0.464 0.304-0.848 0.112-0.416-0.208-1.696-0.624-3.2-1.968-1.184-1.056-1.968-2.352-2.208-2.752-0.192-0.384-0.016-0.624 0.176-0.8 0.176-0.176 0.432-0.464 0.592-0.704 0.208-0.224 0.272-0.4 0.4-0.656 0.128-0.272 0.064-0.496-0.032-0.688-0.096-0.176-0.896-2.16-1.232-2.944-0.32-0.768-0.64-0.672-0.896-0.688-0.224 0-0.48-0.016-0.752-0.016z"></path>
</symbol>
<symbol id="icon-linkedin" viewBox="0 0 34 32">
<path fill="#6d95fc" style="fill: var(--color1, #6d95fc)" d="M30.045 0c0.943 0 1.847 0.375 2.514 1.041s1.041 1.571 1.041 2.514v24.889c0 0.943-0.375 1.847-1.041 2.514s-1.571 1.041-2.514 1.041h-24.889c-0.943 0-1.847-0.375-2.514-1.041s-1.041-1.571-1.041-2.514v-24.889c0-0.943 0.375-1.847 1.041-2.514s1.571-1.041 2.514-1.041h24.889zM29.156 27.556v-9.422c0-1.537-0.611-3.011-1.697-4.098s-2.561-1.697-4.098-1.697c-1.511 0-3.271 0.924-4.124 2.311v-1.973h-4.96v14.88h4.96v-8.764c0-1.369 1.102-2.489 2.471-2.489 0.66 0 1.293 0.262 1.76 0.729s0.729 1.1 0.729 1.76v8.764h4.96zM8.498 9.884c0.792 0 1.552-0.315 2.112-0.875s0.875-1.32 0.875-2.112c0-1.653-1.333-3.004-2.987-3.004-0.797 0-1.561 0.317-2.124 0.88s-0.88 1.328-0.88 2.124c0 1.653 1.351 2.987 3.004 2.987zM10.97 27.556v-14.88h-4.924v14.88h4.924z"></path>
</symbol>
<symbol id="icon-pinterest" viewBox="0 0 34 32">
<path fill="#6d95fc" style="fill: var(--color1, #6d95fc)" d="M12.705 31.264c1.536 0.464 3.088 0.736 4.736 0.736 4.244 0 8.313-1.686 11.314-4.686s4.686-7.070 4.686-11.314c0-2.101-0.414-4.182-1.218-6.123s-1.983-3.705-3.468-5.191c-1.486-1.486-3.25-2.664-5.191-3.468s-4.022-1.218-6.123-1.218c-2.101 0-4.182 0.414-6.123 1.218s-3.705 1.983-5.191 3.468c-3.001 3.001-4.686 7.070-4.686 11.314 0 6.8 4.272 12.64 10.304 14.944-0.144-1.248-0.288-3.312 0-4.736l1.84-7.904c0 0-0.464-0.928-0.464-2.4 0-2.208 1.376-3.856 2.944-3.856 1.376 0 2.016 1.008 2.016 2.304 0 1.376-0.912 3.344-1.376 5.232-0.272 1.568 0.832 2.944 2.432 2.944 2.848 0 5.056-3.040 5.056-7.328 0-3.84-2.752-6.464-6.704-6.464-4.512 0-7.168 3.36-7.168 6.896 0 1.376 0.448 2.768 1.184 3.68 0.144 0.096 0.144 0.224 0.096 0.464l-0.464 1.744c0 0.272-0.176 0.368-0.448 0.176-2.048-0.896-3.232-3.808-3.232-6.16 0-5.056 3.584-9.648 10.496-9.648 5.504 0 9.792 3.952 9.792 9.2 0 5.504-3.408 9.92-8.288 9.92-1.552 0-3.072-0.832-3.616-1.808l-1.072 3.792c-0.368 1.376-1.376 3.216-2.064 4.32v-0.048z"></path>
</symbol>
<symbol id="icon-twiter" viewBox="0 0 41 32">
<path fill="#6d95fc" style="fill: var(--color1, #6d95fc)" d="M41.074 3.765c-1.449 0.659-3.012 1.092-4.631 1.299 1.656-0.998 2.936-2.579 3.539-4.48-1.562 0.941-3.294 1.6-5.12 1.976-1.487-1.619-3.576-2.56-5.948-2.56-4.424 0-8.038 3.614-8.038 8.075 0 0.64 0.075 1.261 0.207 1.845-6.701-0.339-12.668-3.558-16.64-8.433-0.696 1.186-1.092 2.579-1.092 4.047 0 2.805 1.412 5.289 3.595 6.701-1.336 0-2.579-0.376-3.671-0.941 0 0 0 0 0 0.056 0 3.915 2.786 7.191 6.475 7.925-0.678 0.188-1.393 0.282-2.127 0.282-0.508 0-1.016-0.056-1.506-0.151 1.016 3.181 3.972 5.553 7.529 5.609-2.748 2.184-6.231 3.464-10.033 3.464-0.64 0-1.28-0.038-1.92-0.113 3.576 2.296 7.831 3.633 12.386 3.633 14.833 0 22.984-12.311 22.984-22.984 0-0.358 0-0.696-0.019-1.054 1.581-1.129 2.936-2.56 4.028-4.198z"></path>
</symbol>
<symbol id="icon-tick" viewBox="0 0 32 32">
<path fill="#6d95fc" style="fill: var(--color1, #6d95fc)" d="M17.563 0v3.237c7.041 0.865 12.030 7.259 11.164 14.293-0.738 5.833-5.325 10.464-11.164 11.153v3.205c8.822-0.881 15.238-8.701 14.355-17.514-0.722-7.611-6.769-13.62-14.355-14.374zM14.355 0.048c-3.128 0.304-6.111 1.506-8.549 3.525l2.294 2.372c1.796-1.442 3.962-2.372 6.255-2.692v-3.205zM3.545 5.833c-2.021 2.436-3.224 5.4-3.545 8.541h3.208c0.305-2.275 1.203-4.439 2.63-6.249l-2.294-2.291zM21.573 10.368l-7.827 7.82-3.4-3.397-1.7 1.698 5.101 5.096 9.528-9.518-1.7-1.699zM0.016 17.578c0.321 3.141 1.556 6.105 3.545 8.541l2.278-2.291c-1.412-1.811-2.326-3.974-2.614-6.249h-3.208zM8.1 26.183l-2.294 2.195c2.422 2.019 5.405 3.285 8.549 3.622v-3.205c-2.278-0.288-4.443-1.202-6.255-2.612z"></path>
</symbol>
<symbol id="icon-Searchright" viewBox="0 0 31 32">
<path d="M11.489 0.533c3.047 0 5.97 1.21 8.124 3.365s3.365 5.077 3.365 8.124c0 2.846-1.043 5.462-2.758 7.477l0.477 0.477h1.396l8.838 8.838-2.651 2.651-8.838-8.838v-1.396l-0.477-0.477c-2.015 1.715-4.631 2.758-7.477 2.758-3.047 0-5.97-1.211-8.124-3.365s-3.365-5.077-3.365-8.124c0-3.047 1.21-5.97 3.365-8.124s5.077-3.365 8.124-3.365zM11.489 4.069c-4.419 0-7.954 3.535-7.954 7.954s3.535 7.954 7.954 7.954c4.419 0 7.954-3.535 7.954-7.954s-3.535-7.954-7.954-7.954z"></path>
</symbol>
<symbol id="icon-Groupa" viewBox="0 0 28 32">
<path fill="#fff" style="fill: var(--color2, #fff)" d="M16.958 30.347c0.158-0.019 0.293-0.126 0.348-0.278 0.061-0.169 0.010-0.357-0.128-0.472-1.293-1.072-2.085-2.631-2.189-4.308s0.49-3.321 1.641-4.544c1.151-1.223 2.757-1.916 4.436-1.915 0.262 0 0.525 0.017 0.785 0.050 0.121 0.015 0.243-0.022 0.335-0.103s0.144-0.197 0.144-0.319v-13.331c-0-0.46-0.183-0.901-0.509-1.226s-0.766-0.508-1.226-0.509h-4.37c-0.235 0-0.426 0.191-0.426 0.426v1.595h-9.118v-1.595c0-0.113-0.045-0.221-0.125-0.301s-0.188-0.125-0.301-0.125h-4.375c-0.46 0.001-0.901 0.183-1.226 0.509 0 0 0 0 0 0M16.958 30.347l-16.958-25.219c0.001-0.499 0.199-0.978 0.552-1.331l0.105 0.105M16.958 30.347h-15.075c-0.46-0.001-0.901-0.183-1.226-0.509s-0.508-0.766-0.509-1.226v-23.484M16.958 30.347l-16.809-25.219M0.657 3.902c-0.325 0.325-0.508 0.766-0.509 1.226M0.657 3.902l-0.509 1.226M1.883 4.245v0h-0.001c-0.485 0.004-0.877 0.397-0.88 0.882v0 23.486c0.001 0.486 0.394 0.881 0.881 0.883h13.965l-0.193-0.241c-1.096-1.366-1.634-3.097-1.507-4.844s0.911-3.381 2.193-4.574c1.283-1.193 2.969-1.857 4.721-1.858 0.090 0 0.174 0 0.258 0.005l0.157 0.009v-12.866c-0.001-0.487-0.396-0.882-0.883-0.883h-3.939v1.595c0 0.113-0.045 0.221-0.125 0.301s-0.188 0.125-0.301 0.125h-9.969c-0.235 0-0.426-0.19-0.426-0.426v-1.595l-3.949-0z"></path>
<path fill="#fff" style="fill: var(--color2, #fff)" d="M9.123 2.027h-2.865c-0.235 0-0.426 0.191-0.426 0.426v3.388c0 0.235 0.191 0.426 0.426 0.426h9.969c0.235 0 0.426-0.19 0.426-0.426v-3.388c0-0.113-0.045-0.221-0.125-0.301s-0.188-0.125-0.301-0.125h-2.863l-0.022-0.122c-0.12-0.66-0.544-1.226-1.145-1.526s-1.307-0.3-1.908 0l-1.167 1.648zM9.123 2.027l0.022-0.122M9.123 2.027l0.022-0.122M9.145 1.905c0.12-0.66 0.544-1.226 1.145-1.526l-1.145 1.526zM6.683 5.415l-0-0.148-0-2.24v-0.148h2.853c0.12 0.001 0.235-0.050 0.316-0.139 0.080-0.087 0.119-0.203 0.11-0.321l-0-0.001c-0.007-0.050-0.007-0.093-0.007-0.129v-0.007h0c0.012-0.45 0.258-0.861 0.65-1.083l-3.923 4.216zM6.683 5.415h9.118v-2.537h-2.863c-0.12 0.001-0.236-0.050-0.317-0.139M6.683 5.415l5.938-2.676M12.622 2.739c-0.081-0.089-0.121-0.208-0.109-0.328v-0M12.622 2.739l-0.109-0.328M12.513 2.411c0.004-0.041 0.006-0.081 0.006-0.126h0M12.513 2.411l0.006-0.126M12.519 2.285l-0-0.004M12.519 2.285l-0-0.004M12.519 2.281c-0.011-0.45-0.258-0.862-0.65-1.083M12.519 2.281l-0.65-1.083M11.869 1.198c-0.392-0.222-0.871-0.222-1.263-0l1.263 0z"></path>
<path fill="#6d95fc" style="fill: var(--color1, #6d95fc)" d="M3.339 27.734c-0.235 0-0.426-0.191-0.426-0.426v-20.877c0-0.235 0.191-0.426 0.426-0.426s0.426 0.19 0.426 0.426v20.877c0 0.113-0.045 0.221-0.125 0.301s-0.188 0.125-0.301 0.125z"></path>
<path fill="#6d95fc" style="fill: var(--color1, #6d95fc)" d="M19.141 19.12c-0.235 0-0.426-0.191-0.426-0.426v-12.264c0-0.235 0.191-0.426 0.426-0.426s0.426 0.191 0.426 0.426v12.264c0 0.113-0.045 0.221-0.125 0.301v0c-0.080 0.080-0.188 0.125-0.301 0.125z"></path>
<path fill="#6d95fc" style="fill: var(--color1, #6d95fc)" d="M16.679 20.53h-11.16c-0.235 0-0.426-0.19-0.426-0.426s0.191-0.426 0.426-0.426h11.16c0.235 0 0.426 0.191 0.426 0.426s-0.191 0.426-0.426 0.426z"></path>
<path fill="#6d95fc" style="fill: var(--color1, #6d95fc)" d="M15.093 22.75h-9.573c-0.235 0-0.426-0.191-0.426-0.426s0.191-0.426 0.426-0.426h9.573c0.235 0 0.426 0.19 0.426 0.426s-0.191 0.426-0.426 0.426z"></path>
<path fill="#6d95fc" style="fill: var(--color1, #6d95fc)" d="M14.567 24.969h-9.048c-0.235 0-0.426-0.191-0.426-0.426s0.191-0.426 0.426-0.426h9.048c0.235 0 0.426 0.191 0.426 0.426s-0.191 0.426-0.426 0.426z"></path>
<path fill="#6d95fc" style="fill: var(--color1, #6d95fc)" d="M14.823 27.188h-9.304c-0.235 0-0.426-0.191-0.426-0.426s0.191-0.426 0.426-0.426h9.304c0.235 0 0.426 0.191 0.426 0.426s-0.19 0.426-0.426 0.426z"></path>
<path fill="#fff" style="fill: var(--color2, #fff)" d="M25.966 29.813v0c1.3-1.3 2.031-3.063 2.034-4.901-0-1.839-0.73-3.603-2.031-4.904s-3.064-2.031-4.904-2.032l4.901 11.837zM25.966 29.813c-1.3 1.3-3.063 2.031-4.901 2.033-1.839 0-3.603-0.731-4.904-2.031M25.966 29.813l-9.805 0.002M16.161 29.815c-1.301-1.301-2.031-3.065-2.031-4.904M16.161 29.815l-2.031-4.904M14.13 24.911c0-1.839 0.731-3.603 2.031-4.904M14.13 24.911l2.031-4.904M16.162 20.007c1.301-1.301 3.065-2.031 4.904-2.031l-4.904 2.031zM21.213 18.833v-0.005h-0.148c-1.614 0-3.161 0.641-4.302 1.782v0c-1.141 1.141-1.782 2.688-1.782 4.302s0.641 3.161 1.782 4.302v0c1.141 1.141 2.688 1.782 4.302 1.782s3.161-0.641 4.302-1.782c1.141-1.141 1.782-2.688 1.782-4.302v-0c-0.002-1.612-0.644-3.158-1.785-4.298-1.105-1.105-2.592-1.741-4.151-1.781z"></path>
<path fill="#6d95fc" style="fill: var(--color1, #6d95fc)" d="M19.213 27.115l-0-0-0.695-0.694c-0.080-0.080-0.124-0.188-0.124-0.301s0.045-0.221 0.125-0.301l0-0c0.166-0.166 0.436-0.166 0.602 0l0.392 0.392 3.496-3.496c0.167-0.158 0.43-0.154 0.593 0.009s0.166 0.426 0.009 0.593l-3.799 3.799c-0 0-0 0-0 0-0.079 0.079-0.186 0.123-0.297 0.124-0.113-0-0.22-0.045-0.3-0.125z"></path>
<path fill="#fff" style="fill: var(--color2, #fff)" d="M17.445 28.534v0c0.96 0.96 2.262 1.5 3.62 1.5 1.357-0.001 2.659-0.541 3.618-1.501s1.5-2.261 1.501-3.618c0-1.358-0.539-2.66-1.499-3.62s-2.262-1.5-3.62-1.5l-3.621 8.74zM17.445 28.534c-0.96-0.96-1.499-2.262-1.499-3.62M17.445 28.534l-1.499-3.62M21.065 20.646h0c1.132 0.001 2.217 0.451 3.017 1.252 0 0 0 0 0 0M21.065 20.646l2.912 1.356 0.105-0.105M21.065 20.646c-1.132 0-2.218 0.45-3.018 1.25v0c-0.8 0.8-1.25 1.886-1.25 3.018s0.45 2.218 1.25 3.018l0 0c0.801 0.8 1.886 1.25 3.018 1.25s2.218-0.45 3.018-1.25h0c0.801-0.801 1.25-1.886 1.25-3.018v-0c-0.001-1.132-0.451-2.217-1.252-3.017M21.065 20.646l3.017 1.252M15.946 24.914c0-1.358 0.539-2.66 1.5-3.62M15.946 24.914l1.5-3.62M17.445 21.294c0 0 0 0 0 0 0.96-0.96 2.263-1.499 3.62-1.499l-3.62 1.499z"></path>
<path fill="#6d95fc" style="fill: var(--color1, #6d95fc)" d="M9.82 16.548v1.379c0 0.235 0.191 0.426 0.426 0.426h1.988c0.113 0 0.221-0.045 0.301-0.125s0.125-0.188 0.125-0.301v-1.38l0.090-0.038c0.289-0.123 0.561-0.281 0.812-0.47l0.040-0.030h0.090l1.145 0.661c0.204 0.118 0.464 0.048 0.581-0.155l0.994-1.721-6.59 1.754zM9.82 16.548l-0.090-0.039c-0.288-0.124-0.561-0.281-0.811-0.469l-0.078-0.059-1.16 0.67M9.82 16.548l-2.14 0.104M7.681 16.652h-0l-0.034 0.020c-0.098 0.056-0.214 0.072-0.323 0.043v0c-0.109-0.029-0.202-0.101-0.258-0.198-0 0-0 0-0-0l-0.994-1.721 1.61 1.857zM5.885 14.433l0.143 0.038c-0.029 0.109-0.014 0.225 0.043 0.323l-0.186-0.362zM5.885 14.433l0.143 0.038c0.029-0.109 0.101-0.202 0.198-0.258l1.194-0.689M5.885 14.433l1.536-0.909M7.421 13.524l-0.012-0.097M7.421 13.524l-0.012-0.097M7.409 13.427c-0.038-0.311-0.038-0.626 0-0.938l0.012-0.097M7.409 13.427l0.012-1.035M7.421 12.392l-0.085-0.049M7.421 12.392l-0.085-0.049M7.336 12.343v0zM6.028 11.444v0c0.029 0.109 0.101 0.202 0.198 0.258l-0.198-0.258zM6.028 11.444c-0.029-0.109-0.014-0.225 0.043-0.323l0.994-1.721c0 0 0-0 0-0 0.056-0.098 0.149-0.169 0.258-0.198v0M6.028 11.444l1.295-2.243M7.323 9.201c0.109-0.029 0.225-0.014 0.323 0.043h0M7.323 9.201l0.323 0.043M7.646 9.244l1.145 0.661M7.646 9.244l1.145 0.661M8.79 9.905h0.040M8.79 9.905h0.040M8.83 9.905h0.050M8.83 9.905h0.050M8.88 9.905l0.040-0.030M8.88 9.905l0.040-0.030M8.919 9.875c0.25-0.188 0.523-0.346 0.811-0.469l0.090-0.038M8.919 9.875l0.901-0.508M9.82 9.367v-0.098M9.82 9.367v-0.098M9.82 9.27v-1.282c0-0.235 0.191-0.426 0.426-0.426h1.988M9.82 9.27l2.413-1.708M12.234 7.562c0.113 0 0.221 0.045 0.301 0.125s0.125 0.188 0.125 0.301v1.282h0.148M12.234 7.562l0.574 1.707M12.808 9.269l-0.058 0.136c0.289 0.123 0.561 0.281 0.812 0.469l0.078 0.059 1.195-0.689c0.098-0.056 0.214-0.072 0.323-0.043v0c0.109 0.029 0.202 0.101 0.258 0.198l0.994 1.721-3.603-1.852zM16.255 11.702c0.098-0.056 0.169-0.149 0.198-0.258s0.014-0.225-0.043-0.323l-0.156 0.582zM16.255 11.702c0 0-0 0-0 0l-1.076 0.62h-0.128l0.021 0.166c0.019 0.155 0.029 0.311 0.028 0.468v0c0 0.157-0.009 0.313-0.028 0.469l-0.012 0.097 1.194 0.689c0.098 0.056 0.169 0.149 0.198 0.258s0.014 0.225-0.043 0.323l-0.156-3.092zM10.671 17.502l0-0.148 0-1.108c0 0 0-0 0-0 0-0.188-0.123-0.353-0.302-0.408l-0-0c-0.443-0.135-0.849-0.37-1.187-0.686l-0-0c-0.136-0.128-0.341-0.152-0.504-0.059l-1.089 0.629-0.569-0.985 1.089-0.628c0 0 0-0 0-0 0.162-0.094 0.244-0.283 0.202-0.465l-0-0c-0.105-0.451-0.105-0.921 0-1.373 0.043-0.183-0.039-0.371-0.202-0.465l-1.088-0.628 0.569-0.985 1.089 0.629c0 0 0 0 0 0 0.162 0.094 0.367 0.070 0.503-0.059l0-0c0.338-0.316 0.744-0.551 1.187-0.686l0-0c0.179-0.054 0.302-0.22 0.302-0.408v-1.257h1.137v1.257c0 0.188 0.123 0.353 0.303 0.408l0 0c0.443 0.135 0.849 0.37 1.187 0.686l0 0c0.137 0.128 0.341 0.152 0.503 0.058l0-0 1.089-0.628 0.568 0.985-1.088 0.628c-0.162 0.094-0.244 0.283-0.202 0.465l0 0c0.104 0.451 0.104 0.921 0 1.372l-0 0c-0.043 0.183 0.039 0.372 0.202 0.465l1.089 0.628-0.569 0.985-1.089-0.629-3.131 2.409zM10.671 17.502h0.148M10.671 17.502h0.148M10.82 17.502h0.989M10.82 17.502h0.989M11.808 17.502v-0.148M11.808 17.502v-0.148M11.808 17.354v-1.109c0-0.188 0.123-0.353 0.303-0.408l0-0M11.808 17.354l0.303-1.516M12.111 15.837c0.443-0.134 0.849-0.369 1.187-0.686l0-0M12.111 15.837l1.187-0.686M13.299 15.152c0.137-0.128 0.341-0.152 0.503-0.059l-0.503 0.059zM9.283 10.872c-0.184 0.173-0.46 0.205-0.679 0.079l0.679-0.079z"></path>
<path fill="#6d95fc" style="fill: var(--color1, #6d95fc)" d="M9.757 14.441l0 0c0.393 0.393 0.927 0.615 1.483 0.615l-1.483-0.615zM9.757 14.441c-0.393-0.393-0.614-0.927-0.614-1.483v-0M9.757 14.441l-0.614-1.483M9.144 12.957c0-0.556 0.221-1.090 0.614-1.483s0.927-0.614 1.483-0.614 1.090 0.221 1.483 0.614c0.393 0.393 0.614 0.927 0.614 1.483s-0.222 1.090-0.615 1.483l-0 0M9.144 12.957l3.579 1.483M12.723 14.441c-0.393 0.393-0.927 0.614-1.483 0.615l1.483-0.615zM11.24 11.712h0c0.331 0 0.647 0.131 0.881 0.365l0 0c0.234 0.234 0.365 0.551 0.365 0.881v0c0 0.33-0.131 0.647-0.365 0.881s-0.55 0.365-0.881 0.365c-0 0-0 0-0 0v-0.148l-0.001-2.344zM11.24 11.712c-0.33 0-0.647 0.132-0.881 0.365M11.24 11.712l-0.881 0.365M10.359 12.077c-0.234 0.234-0.365 0.551-0.365 0.881l0.365-0.881z"></path>
</symbol>
<symbol id="icon-Groups" viewBox="0 0 33 32">
<path d="M5.627 21.543c0 0.824-0.67 1.494-1.493 1.494s-1.494-0.67-1.494-1.494c0-0.824 0.67-1.494 1.494-1.494s1.493 0.67 1.493 1.494zM1.979 21.543c0 1.187 0.966 2.154 2.154 2.154s2.154-0.966 2.154-2.154c0-1.187-0.966-2.154-2.154-2.154s-2.154 0.967-2.154 2.154zM30.041 21.543c0 0.824-0.67 1.494-1.494 1.494s-1.493-0.67-1.493-1.494c0-0.824 0.67-1.494 1.493-1.494s1.494 0.67 1.494 1.494zM26.393 21.543c0 1.187 0.966 2.154 2.154 2.154s2.154-0.966 2.154-2.154c0-1.187-0.966-2.154-2.154-2.154-1.187 0-2.154 0.967-2.154 2.154zM16.34 23.037c-0.824 0-1.493-0.67-1.493-1.494s0.67-1.494 1.493-1.494c0.824 0 1.494 0.67 1.494 1.494s-0.67 1.494-1.494 1.494zM16.34 19.39c-1.187 0-2.154 0.966-2.154 2.154s0.966 2.154 2.154 2.154c1.188 0 2.154-0.966 2.154-2.154s-0.966-2.154-2.154-2.154zM31.852 31.075h-6.608v-4.295c0-0.683 0.396-1.314 1-1.622 0.674 0.482 1.466 0.737 2.303 0.737 0.838 0 1.629-0.255 2.303-0.737 0.605 0.307 1.001 0.939 1.001 1.622l0 4.295h0.001zM30.926 24.47c-0.109-0.042-0.234-0.024-0.325 0.050-0.589 0.468-1.3 0.716-2.054 0.716s-1.464-0.248-2.053-0.716c-0.092-0.073-0.216-0.092-0.325-0.050-0.948 0.369-1.585 1.297-1.585 2.31v4.625c0 0.182 0.148 0.33 0.33 0.33h7.268c0.182 0 0.33-0.148 0.33-0.33v-4.624c0-1.013-0.636-1.942-1.584-2.31l0-0zM19.645 31.075h-6.608v-4.295c0-0.683 0.396-1.314 1.001-1.622 0.674 0.482 1.466 0.737 2.303 0.737s1.629-0.255 2.303-0.737c0.605 0.307 1.002 0.939 1.002 1.622l-0 4.295zM18.72 24.47c-0.109-0.042-0.233-0.024-0.325 0.050-0.589 0.468-1.299 0.716-2.054 0.716s-1.464-0.248-2.054-0.716c-0.092-0.073-0.216-0.092-0.325-0.050-0.948 0.369-1.585 1.297-1.585 2.31v4.625c0 0.182 0.148 0.33 0.33 0.33h7.268c0.182 0 0.33-0.148 0.33-0.33v-4.624c0-1.013-0.637-1.942-1.585-2.31l-0-0zM7.438 31.075h-6.608v-4.295c0-0.683 0.396-1.314 1.001-1.622 0.674 0.482 1.466 0.737 2.303 0.737s1.629-0.255 2.303-0.737c0.605 0.307 1.001 0.939 1.001 1.622l0 4.295h0zM6.513 24.47c-0.109-0.042-0.233-0.024-0.325 0.050-0.589 0.468-1.3 0.716-2.054 0.716s-1.464-0.248-2.054-0.716c-0.092-0.073-0.216-0.092-0.325-0.050-0.948 0.369-1.585 1.297-1.585 2.31v4.625c0 0.182 0.148 0.33 0.33 0.33h7.267c0.182 0 0.33-0.148 0.33-0.33v-4.624c0-1.013-0.637-1.942-1.585-2.31l0-0zM24.43 5.843c0.143 0 0.27-0.092 0.314-0.228l0.443-1.364 0.443 1.364c0.044 0.136 0.171 0.228 0.314 0.228h1.434l-1.161 0.843c-0.116 0.084-0.164 0.233-0.12 0.369l0.443 1.364-1.16-0.843c-0.059-0.041-0.126-0.063-0.194-0.063s-0.136 0.021-0.195 0.063l-1.16 0.843 0.443-1.364c0.044-0.136-0.005-0.285-0.12-0.369l-1.16-0.843h1.434zM21.786 5.78l1.788 1.299-0.683 2.102c-0.044 0.136 0.004 0.284 0.119 0.369s0.273 0.084 0.388 0l1.788-1.299 1.788 1.299c0.057 0.043 0.126 0.063 0.194 0.063s0.136-0.021 0.194-0.063c0.116-0.085 0.164-0.233 0.119-0.369l-0.683-2.102 1.788-1.299c0.116-0.084 0.164-0.233 0.12-0.369s-0.171-0.228-0.314-0.228h-2.21l-0.683-2.102c-0.044-0.136-0.17-0.228-0.313-0.228s-0.27 0.092-0.314 0.228l-0.683 2.102h-2.211c-0.143 0-0.269 0.092-0.314 0.228s0.005 0.285 0.121 0.369zM15.584 5.843c0.143 0 0.27-0.092 0.314-0.228l0.443-1.363 0.443 1.364c0.044 0.136 0.171 0.228 0.314 0.228h1.434l-1.161 0.843c-0.116 0.084-0.164 0.233-0.12 0.369l0.443 1.364-1.161-0.843c-0.058-0.042-0.126-0.063-0.194-0.063s-0.136 0.021-0.194 0.063l-1.161 0.843 0.443-1.364c0.044-0.136-0.004-0.285-0.12-0.369l-1.16-0.843h1.434zM12.94 5.78l1.788 1.299-0.683 2.102c-0.044 0.136 0.004 0.284 0.12 0.369s0.272 0.084 0.388 0l1.788-1.299 1.788 1.299c0.058 0.043 0.126 0.063 0.194 0.063s0.136-0.021 0.194-0.063c0.116-0.085 0.164-0.233 0.12-0.369l-0.683-2.102 1.788-1.299c0.116-0.084 0.164-0.233 0.12-0.369s-0.171-0.228-0.314-0.228h-2.211l-0.683-2.102c-0.044-0.136-0.171-0.228-0.314-0.228s-0.269 0.092-0.314 0.228l-0.683 2.102h-2.21c-0.143 0-0.27 0.092-0.314 0.228s0.004 0.285 0.12 0.369h0zM6.738 5.843c0.143 0 0.27-0.092 0.314-0.228l0.443-1.364 0.443 1.364c0.044 0.136 0.171 0.228 0.314 0.228h1.434l-1.16 0.843c-0.116 0.084-0.164 0.233-0.12 0.369l0.443 1.364-1.16-0.843c-0.058-0.041-0.126-0.063-0.194-0.063s-0.136 0.021-0.194 0.063l-1.16 0.843 0.443-1.364c0.044-0.136-0.004-0.285-0.12-0.369l-1.16-0.843h1.434zM4.094 5.78l1.788 1.299-0.683 2.102c-0.044 0.136 0.004 0.284 0.12 0.369s0.272 0.084 0.388 0l1.788-1.299 1.788 1.299c0.058 0.043 0.126 0.063 0.194 0.063s0.136-0.021 0.194-0.063c0.116-0.085 0.164-0.233 0.12-0.369l-0.683-2.102 1.788-1.299c0.116-0.084 0.164-0.233 0.12-0.369s-0.171-0.228-0.314-0.228h-2.21l-0.683-2.102c-0.044-0.136-0.171-0.228-0.314-0.228s-0.27 0.092-0.314 0.228l-0.683 2.102h-2.21c-0.143 0-0.269 0.092-0.314 0.228s0.004 0.285 0.12 0.369h0zM2.417 3.181c0-1.244 1.012-2.256 2.256-2.256h23.336c1.244 0 2.256 1.012 2.256 2.256v6.103c0 1.244-1.012 2.256-2.256 2.256h-10.169c-0.141 0-0.266 0.089-0.312 0.222l-1.187 3.427-1.187-3.428c-0.046-0.133-0.172-0.222-0.312-0.222h-10.168c-1.244 0-2.256-1.012-2.256-2.256v-6.103zM4.673 12.201h9.934l1.422 4.105c0.046 0.134 0.171 0.222 0.312 0.222s0.266-0.089 0.312-0.222l1.422-4.105h9.934c1.608 0 2.916-1.308 2.916-2.917v-6.103c0-1.608-1.309-2.916-2.916-2.916h-23.336c-1.608 0-2.916 1.308-2.916 2.916v6.103c0 1.608 1.309 2.917 2.916 2.917z"></path>
</symbol>
<symbol id="icon-Videoright" viewBox="0 0 33 32">
<path fill="#6d95fc" style="fill: var(--color1, #6d95fc)" d="M16.089 10.288c-0.142 0-0.284-0.036-0.413-0.107 0 0 0 0 0 0l0.413 0.107zM16.089 10.288c0.142 0 0.284-0.036 0.413-0.107l1.199-0.663c0.259-0.143 0.413-0.4 0.413-0.686s-0.155-0.543-0.413-0.686l-1.199-0.663c0 0 0 0 0 0l-0.413 2.806zM16.032 8.074h0c0.013-0.007 0.033-0.015 0.057-0.015 0.017 0 0.036 0.004 0.057 0.015h0l1.199 0.663c0.050 0.027 0.057 0.071 0.057 0.094s-0.007 0.067-0.057 0.094v0l-1.199 0.663c-0.050 0.027-0.093 0.012-0.114 0v-0c-0.022-0.012-0.057-0.040-0.057-0.094v-1.327c0-0.055 0.035-0.082 0.057-0.094z"></path>
<path fill="#6d95fc" style="fill: var(--color1, #6d95fc)" d="M13.168 8.832c0 1.86 1.58 3.373 3.521 3.373s3.521-1.513 3.521-3.373-1.58-3.373-3.52-3.373c-1.941 0-3.521 1.513-3.521 3.373zM13.881 8.832c0-1.483 1.259-2.689 2.808-2.689s2.808 1.207 2.808 2.689c0 1.483-1.259 2.689-2.808 2.689s-2.808-1.207-2.808-2.689z"></path>
<path fill="#6d95fc" style="fill: var(--color1, #6d95fc)" d="M5.899 17.342h21.58c0.197 0 0.356-0.153 0.356-0.342v-16.337c0-0.189-0.16-0.342-0.356-0.342h-21.58c-0.196 0-0.356 0.153-0.356 0.342v16.337c0 0.189 0.16 0.342 0.356 0.342zM27.122 1.005v15.654h-20.867v-15.654h20.867z"></path>
<path fill="#6d95fc" style="fill: var(--color1, #6d95fc)" d="M7.987 4.672h2.784c0.196 0 0.356-0.153 0.356-0.342v-1.667c0-0.189-0.16-0.342-0.356-0.342h-2.784c-0.196 0-0.356 0.153-0.356 0.342v1.667c0 0.189 0.16 0.342 0.356 0.342zM10.415 3.005v0.984h-2.072v-0.984h2.072z"></path>
<path fill="#6d95fc" style="fill: var(--color1, #6d95fc)" d="M12.86 4.672h2.784c0.196 0 0.356-0.153 0.356-0.342v-1.667c0-0.189-0.16-0.342-0.356-0.342h-2.784c-0.196 0-0.356 0.153-0.356 0.342v1.667c0 0.189 0.16 0.342 0.356 0.342zM15.288 3.005v0.984h-2.072v-0.984h2.072z"></path>
<path fill="#fff" style="fill: var(--color2, #fff)" d="M2.743 26.344h27.891c1.335 0 2.422-1.040 2.422-2.32v-2.023c0-0.189-0.16-0.342-0.356-0.342h-32.022c-0.196 0-0.356 0.153-0.356 0.342v2.023c0 1.279 1.087 2.32 2.421 2.32zM1.034 24.024v-1.681h31.309v1.681c0 0.902-0.766 1.637-1.709 1.637h-27.891c-0.943 0-1.709-0.734-1.709-1.637z"></path>
<path fill="#fff" style="fill: var(--color2, #fff)" d="M0.678 22.343h32.022c0.197 0 0.356-0.153 0.356-0.342v-14.903c0-1.531-1.3-2.776-2.897-2.776h-2.68c-0.197 0-0.356 0.153-0.356 0.342s0.16 0.342 0.356 0.342h2.68c1.205 0 2.185 0.939 2.185 2.092v14.562h-31.309v-14.562c0-1.153 0.98-2.092 2.185-2.092h2.68c0.196 0 0.356-0.153 0.356-0.342s-0.16-0.342-0.356-0.342h-2.68c-1.597 0-2.897 1.245-2.897 2.776v14.903c0 0.189 0.16 0.342 0.356 0.342z"></path>
<path fill="#6d95fc" style="fill: var(--color1, #6d95fc)" d="M17.733 4.672h2.785c0.197 0 0.356-0.153 0.356-0.342v-1.667c0-0.189-0.16-0.342-0.356-0.342h-2.785c-0.197 0-0.356 0.153-0.356 0.342v1.667c0 0.189 0.16 0.342 0.356 0.342zM20.161 3.005v0.984h-2.072v-0.984h2.072z"></path>
<path fill="#6d95fc" style="fill: var(--color1, #6d95fc)" d="M25.39 4.664h-2.785c-0.192 0-0.348-0.149-0.348-0.333v-1.667c0-0.184 0.156-0.333 0.348-0.333h2.785c0.192 0 0.348 0.149 0.348 0.333v1.667c0 0.184-0.156 0.333-0.348 0.333zM22.954 3.997h2.088v-1h-2.088v1z"></path>
<path fill="#6d95fc" style="fill: var(--color1, #6d95fc)" d="M10.772 15.333h-2.784c-0.192 0-0.348-0.149-0.348-0.333v-1.667c0-0.184 0.156-0.333 0.348-0.333h2.784c0.192 0 0.348 0.149 0.348 0.333v1.667c0 0.184-0.156 0.333-0.348 0.333zM8.335 14.666h2.088v-1h-2.088v1z"></path>
<path fill="#6d95fc" style="fill: var(--color1, #6d95fc)" d="M15.645 15.333h-2.784c-0.192 0-0.348-0.149-0.348-0.333v-1.667c0-0.184 0.156-0.333 0.348-0.333h2.784c0.192 0 0.348 0.149 0.348 0.333v1.667c0 0.184-0.156 0.333-0.348 0.333zM13.208 14.666h2.088v-1h-2.088v1z"></path>
<path fill="#6d95fc" style="fill: var(--color1, #6d95fc)" d="M20.517 15.333h-2.785c-0.192 0-0.348-0.149-0.348-0.333v-1.667c0-0.184 0.156-0.333 0.348-0.333h2.785c0.192 0 0.348 0.149 0.348 0.333v1.667c0 0.184-0.156 0.333-0.348 0.333zM18.081 14.666h2.088v-1h-2.088v1z"></path>
<path fill="#6d95fc" style="fill: var(--color1, #6d95fc)" d="M25.39 15.333h-2.785c-0.192 0-0.348-0.149-0.348-0.333v-1.667c0-0.184 0.156-0.333 0.348-0.333h2.785c0.192 0 0.348 0.149 0.348 0.333v1.667c0 0.184-0.156 0.333-0.348 0.333zM22.954 14.666h2.088v-1h-2.088v1z"></path>
<path fill="#fff" style="fill: var(--color2, #fff)" d="M12.86 30.345h7.657c0.197 0 0.356-0.153 0.356-0.342v-4.001c0-0.189-0.16-0.342-0.356-0.342h-7.657c-0.196 0-0.356 0.153-0.356 0.342v4.001c0 0.189 0.16 0.342 0.356 0.342zM20.161 26.344v3.318h-6.945v-3.318h6.945z"></path>
<path fill="#fff" style="fill: var(--color2, #fff)" d="M14.601 30.345h4.177c0.197 0 0.356-0.153 0.356-0.342v-4.001c0-0.189-0.16-0.342-0.356-0.342h-4.177c-0.196 0-0.356 0.153-0.356 0.342v4.001c0 0.189 0.16 0.342 0.356 0.342zM18.421 26.344v3.318h-3.464v-3.318h3.464z"></path>
<path fill="#fff" style="fill: var(--color2, #fff)" d="M11.816 31.678h9.746c0.58 0 1.052-0.452 1.052-1.009s-0.472-1.008-1.052-1.008h-9.746c-0.58 0-1.052 0.452-1.052 1.008s0.472 1.009 1.052 1.009zM11.476 30.67c0-0.179 0.152-0.325 0.34-0.325h9.746c0.188 0 0.34 0.146 0.34 0.325s-0.152 0.325-0.34 0.325h-9.746c-0.188 0-0.34-0.146-0.34-0.325z"></path>
</symbol>
<symbol id="icon-webdesign" viewBox="0 0 31 32">
<path fill="#6d95fc" style="fill: var(--color1, #6d95fc)" stroke-linejoin="miter" stroke-linecap="butt" stroke-miterlimit="4" stroke-width="0.3404" stroke="#000" d="M6.249 25.29c0-1.905 1.483-3.443 3.289-3.443s3.289 1.538 3.289 3.443c0 1.905-1.483 3.443-3.289 3.443s-3.289-1.538-3.289-3.443zM6.897 25.29c0 1.51 1.178 2.751 2.641 2.751s2.641-1.241 2.641-2.751c0-1.51-1.178-2.751-2.641-2.751s-2.641 1.241-2.641 2.751z"></path>
<path fill="#6d95fc" style="fill: var(--color1, #6d95fc)" stroke-linejoin="miter" stroke-linecap="butt" stroke-miterlimit="4" stroke-width="0.3404" stroke="#000" d="M8.226 25.29c0-0.767 0.596-1.378 1.312-1.378s1.312 0.611 1.312 1.378c0 0.767-0.596 1.378-1.312 1.378s-1.312-0.611-1.312-1.378zM8.874 25.29c0 0.372 0.291 0.686 0.664 0.686s0.664-0.315 0.664-0.686c0-0.372-0.291-0.686-0.664-0.686s-0.664 0.315-0.664 0.686z"></path>
<path fill="#fff" style="fill: var(--color2, #fff)" stroke-linejoin="miter" stroke-linecap="butt" stroke-miterlimit="4" stroke-width="0.6809" stroke="#000" d="M30.004 24.109l-3.574-1.4h-0.584v-4.31c1.15-0.426 1.977-1.571 1.977-2.916v-0.79c0-0.623 0.278-1.215 0.763-1.625 1.399-1.183 2.202-2.936 2.202-4.811 0-1.76-0.721-3.443-1.978-4.617-0.838-0.783-1.869-1.285-2.963-1.479v-0.613c0-0.854-0.665-1.548-1.482-1.548h-22.732c-0.817 0-1.482 0.695-1.482 1.548v22.71c0 0.854 0.665 1.548 1.482 1.548h1.503c0.091 0.577 0.48 1.062 1.025 1.249 0.15 0.052 0.266 0.163 0.32 0.308 0.026 0.068 0.051 0.135 0.080 0.202 0.058 0.14 0.051 0.305-0.019 0.451-0.297 0.613-0.184 1.351 0.281 1.838l0.348 0.364c0.465 0.485 1.172 0.603 1.759 0.293 0.139-0.073 0.297-0.080 0.432-0.019 0.063 0.029 0.128 0.056 0.193 0.082 0.138 0.056 0.245 0.178 0.295 0.334 0.205 0.653 0.785 1.092 1.443 1.092h0.492c0.658 0 1.238-0.439 1.444-1.092 0.049-0.156 0.156-0.278 0.295-0.334 0.065-0.027 0.13-0.054 0.193-0.083 0.135-0.060 0.292-0.054 0.431 0.020 0.587 0.31 1.294 0.192 1.76-0.294l0.349-0.364c0.465-0.486 0.578-1.225 0.281-1.837-0.022-0.047-0.027-0.096-0.037-0.144h11.93l3.574-1.4c0.468-0.184 0.783-0.659 0.783-1.181s-0.315-0.997-0.783-1.181h0zM15.941 24.774c-0.066-0.42-0.291-0.789-0.618-1.032h10.521v1.032h-9.904zM15.941 25.806h9.904v1.032h-10.521c0.328-0.243 0.552-0.613 0.618-1.032h-0zM24.857 17.548c-1.090 0-1.977-0.926-1.977-2.064h3.953c0 1.139-0.887 2.064-1.977 2.064zM24.529 9.806h0.657l-0.297 4.645h-0.064l-0.297-4.645zM29.799 8.258c0 1.562-0.669 3.023-1.835 4.009-0.655 0.554-1.052 1.34-1.117 2.185h-0.968l0.296-4.645h0.658c0.817 0 1.482-0.695 1.482-1.548s-0.665-1.548-1.483-1.548h-0.064c-0.778 0-1.428 0.635-1.479 1.446l-0.040 0.619h-0.789l-0.040-0.618c-0.051-0.811-0.701-1.446-1.479-1.446h-0.064c-0.817 0-1.483 0.695-1.483 1.548s0.665 1.548 1.483 1.548h0.658l0.296 4.645h-0.968c-0.067-0.841-0.47-1.634-1.137-2.203-1.37-1.171-2.026-2.971-1.753-4.815 0.331-2.241 2.143-4.051 4.31-4.303 0.193-0.023 0.386-0.033 0.578-0.033 1.219 0 2.369 0.456 3.286 1.313 1.048 0.979 1.649 2.381 1.649 3.848zM26.243 8.774l0.035-0.551c0.017-0.27 0.234-0.482 0.493-0.482h0.064c0.273 0 0.494 0.231 0.494 0.516s-0.221 0.516-0.494 0.516h-0.591zM23.472 8.774h-0.591c-0.273 0-0.494-0.231-0.494-0.516s0.221-0.516 0.494-0.516h0.064c0.259 0 0.476 0.212 0.493 0.482l0.035 0.55zM12.998 8.258h-1.482c-0.506 0-0.953 0.267-1.221 0.673-0.417-0.414-0.978-0.673-1.597-0.673h-0.135c-0.421 0-0.834 0.119-1.196 0.346l-2.276 1.427v1.056l2.155 1.8c0.41 0.343 0.926 0.532 1.452 0.532 0.619 0 1.18-0.259 1.597-0.673 0.267 0.405 0.715 0.673 1.221 0.673h1.482v1.032h-9.883v-7.226h9.883l0 1.032zM8.698 12.387c-0.302 0-0.598-0.108-0.834-0.306l-1.768-1.477 1.78-1.115c0.208-0.13 0.445-0.199 0.687-0.199h0.135c0.736 0 1.335 0.626 1.335 1.394v0.309c0 0.768-0.599 1.394-1.335 1.394zM11.515 12.387c-0.273 0-0.494-0.231-0.494-0.516v-2.065c0-0.285 0.221-0.516 0.494-0.516h7.507c0.184 1.15 0.67 2.22 1.428 3.097h-8.934zM1.632 1.032h22.732c0.273 0 0.494 0.231 0.494 0.516v0.52c-0.226-0-0.454 0.010-0.681 0.036-1.453 0.169-2.773 0.923-3.725 2.025h-7.454v-2.065h-2.965v2.065h-0.988v-2.065h-2.965v2.065h-0.988v-2.065h-2.965v2.065h-0.988v-2.581c0-0.285 0.222-0.516 0.494-0.516h-0zM12.009 4.129h-0.988v-1.032h0.988v1.032zM8.056 4.129h-0.988v-1.032h0.988v1.032zM4.103 4.129h-0.988v-1.032h0.988v1.032zM1.138 24.258v-19.097h18.594c-0.363 0.645-0.619 1.358-0.73 2.115-0.049 0.33-0.065 0.657-0.065 0.982h-4.95v-2.065h-11.86v9.29h11.86v-2.065h7.466c0.283 0.375 0.441 0.82 0.441 1.278v0.787c0 1.708 1.33 3.097 2.965 3.097v4.129h-10.358c0.009-0.049 0.014-0.098 0.037-0.144 0.297-0.613 0.184-1.351-0.281-1.838l-0.348-0.364c-0.465-0.486-1.172-0.606-1.759-0.294-0.139 0.074-0.297 0.081-0.432 0.019-0.063-0.029-0.128-0.056-0.193-0.082-0.138-0.056-0.245-0.178-0.295-0.334-0.205-0.653-0.785-1.092-1.443-1.092h-0.492c-0.658 0-1.238 0.439-1.443 1.092-0.049 0.156-0.156 0.278-0.295 0.334-0.065 0.027-0.13 0.054-0.193 0.083-0.135 0.060-0.292 0.054-0.432-0.020-0.587-0.31-1.294-0.192-1.76 0.294l-0.349 0.364c-0.465 0.486-0.578 1.225-0.281 1.837 0.071 0.146 0.077 0.311 0.018 0.452-0.028 0.066-0.053 0.133-0.079 0.202-0.054 0.144-0.171 0.256-0.32 0.308-0.545 0.187-0.934 0.671-1.025 1.248h-1.503c-0.273 0-0.494-0.231-0.494-0.516l-0 0zM13.676 26.988c-0.021 0.056-0.043 0.111-0.065 0.165-0.176 0.423-0.16 0.907 0.043 1.327 0.104 0.214 0.064 0.472-0.098 0.642l-0.348 0.363c-0.163 0.17-0.409 0.211-0.615 0.103-0.402-0.212-0.866-0.229-1.27-0.045-0.052 0.024-0.105 0.047-0.158 0.069-0.415 0.168-0.733 0.524-0.875 0.974-0.072 0.228-0.275 0.381-0.505 0.381h-0.492c-0.23 0-0.433-0.153-0.505-0.382-0.142-0.45-0.461-0.805-0.875-0.974-0.053-0.022-0.106-0.045-0.158-0.068-0.187-0.085-0.386-0.127-0.586-0.127-0.234 0-0.468 0.057-0.685 0.172-0.205 0.108-0.452 0.067-0.615-0.102l-0.348-0.364c-0.163-0.17-0.202-0.428-0.098-0.643 0.203-0.42 0.219-0.904 0.043-1.326-0.023-0.055-0.045-0.11-0.066-0.165-0.161-0.433-0.502-0.766-0.933-0.914-0.217-0.075-0.364-0.287-0.364-0.527v-0.514c0-0.241 0.147-0.452 0.366-0.527 0.431-0.148 0.771-0.482 0.932-0.914 0.021-0.056 0.043-0.111 0.065-0.165 0.176-0.423 0.16-0.907-0.043-1.327-0.104-0.214-0.064-0.472 0.098-0.642l0.348-0.364c0.163-0.169 0.41-0.21 0.615-0.102 0.402 0.212 0.867 0.229 1.27 0.045 0.052-0.024 0.105-0.047 0.158-0.069 0.415-0.168 0.733-0.524 0.875-0.974 0.072-0.228 0.274-0.381 0.505-0.381h0.492c0.23 0 0.433 0.153 0.505 0.382 0.142 0.45 0.461 0.805 0.875 0.974 0.053 0.022 0.106 0.045 0.158 0.068 0.405 0.184 0.868 0.167 1.271-0.045 0.206-0.109 0.453-0.067 0.615 0.102l0.348 0.364c0.163 0.17 0.202 0.428 0.098 0.643-0.203 0.42-0.219 0.904-0.043 1.326 0.023 0.055 0.045 0.11 0.066 0.165 0.161 0.433 0.502 0.766 0.933 0.914 0.218 0.075 0.365 0.287 0.365 0.527v0.514c0 0.241-0.147 0.452-0.366 0.527-0.431 0.148-0.771 0.481-0.932 0.914zM29.657 25.505l-2.823 1.106v-2.639l2.823 1.105c0.085 0.033 0.142 0.12 0.142 0.215s-0.057 0.181-0.142 0.214z"></path>
<path fill="#6d95fc" style="fill: var(--color1, #6d95fc)" stroke-linejoin="miter" stroke-linecap="butt" stroke-miterlimit="4" stroke-width="0.3404" stroke="#000" d="M15.144 14.622h5.59v0.692h-5.59v-0.692z"></path>
<path fill="#6d95fc" style="fill: var(--color1, #6d95fc)" stroke-linejoin="miter" stroke-linecap="butt" stroke-miterlimit="4" stroke-width="0.3404" stroke="#000" d="M15.144 16.686h5.59v0.692h-5.59v-0.692z"></path>
<path fill="#6d95fc" style="fill: var(--color1, #6d95fc)" stroke-linejoin="miter" stroke-linecap="butt" stroke-miterlimit="4" stroke-width="0.3404" stroke="#000" d="M15.144 18.751h5.59v0.692h-5.59v-0.692z"></path>
<path fill="#6d95fc" style="fill: var(--color1, #6d95fc)" stroke-linejoin="miter" stroke-linecap="butt" stroke-miterlimit="4" stroke-width="0.3404" stroke="#000" d="M18.109 20.816h0.648v0.692h-0.648v-0.692z"></path>
<path fill="#6d95fc" style="fill: var(--color1, #6d95fc)" stroke-linejoin="miter" stroke-linecap="butt" stroke-miterlimit="4" stroke-width="0.3404" stroke="#000" d="M20.086 20.816h0.648v0.692h-0.648v-0.692z"></path>
<path fill="#6d95fc" style="fill: var(--color1, #6d95fc)" stroke-linejoin="miter" stroke-linecap="butt" stroke-miterlimit="4" stroke-width="0.3404" stroke="#000" d="M16.132 20.816h0.648v0.692h-0.648v-0.692z"></path>
<path stroke-linejoin="miter" stroke-linecap="butt" stroke-miterlimit="4" stroke-width="0.3404" d="M0 0h30.638v32h-30.638v-32z"></path>
</symbol>
<symbol id="icon-Video-Iconka" viewBox="0 0 33 32">
<path fill="#6d95fc" style="fill: var(--color1, #6d95fc)" d="M16.089 10.288c-0.142 0-0.284-0.036-0.413-0.107 0 0 0 0 0 0l0.413 0.107zM16.089 10.288c0.142 0 0.284-0.036 0.413-0.107l1.199-0.663c0.259-0.143 0.413-0.4 0.413-0.686s-0.155-0.543-0.413-0.686l-1.199-0.663c0 0 0 0 0 0l-0.413 2.806zM16.032 8.074h0c0.013-0.007 0.033-0.015 0.057-0.015 0.017 0 0.036 0.004 0.057 0.015h0l1.199 0.663c0.050 0.027 0.057 0.071 0.057 0.094s-0.007 0.067-0.057 0.094v0l-1.199 0.663c-0.050 0.027-0.093 0.012-0.114 0v-0c-0.022-0.012-0.057-0.040-0.057-0.094v-1.327c0-0.055 0.035-0.082 0.057-0.094z"></path>
<path fill="#6d95fc" style="fill: var(--color1, #6d95fc)" d="M13.168 8.832c0 1.86 1.58 3.373 3.521 3.373s3.521-1.513 3.521-3.373-1.58-3.373-3.52-3.373c-1.941 0-3.521 1.513-3.521 3.373zM13.881 8.832c0-1.483 1.259-2.689 2.808-2.689s2.808 1.207 2.808 2.689c0 1.483-1.259 2.689-2.808 2.689s-2.808-1.207-2.808-2.689z"></path>
<path fill="#6d95fc" style="fill: var(--color1, #6d95fc)" d="M5.899 17.342h21.58c0.197 0 0.356-0.153 0.356-0.342v-16.337c0-0.189-0.16-0.342-0.356-0.342h-21.58c-0.196 0-0.356 0.153-0.356 0.342v16.337c0 0.189 0.16 0.342 0.356 0.342zM27.122 1.005v15.654h-20.867v-15.654h20.867z"></path>
<path fill="#6d95fc" style="fill: var(--color1, #6d95fc)" d="M7.987 4.672h2.784c0.196 0 0.356-0.153 0.356-0.342v-1.667c0-0.189-0.16-0.342-0.356-0.342h-2.784c-0.196 0-0.356 0.153-0.356 0.342v1.667c0 0.189 0.16 0.342 0.356 0.342zM10.415 3.005v0.984h-2.072v-0.984h2.072z"></path>
<path fill="#6d95fc" style="fill: var(--color1, #6d95fc)" d="M12.86 4.672h2.784c0.196 0 0.356-0.153 0.356-0.342v-1.667c0-0.189-0.16-0.342-0.356-0.342h-2.784c-0.196 0-0.356 0.153-0.356 0.342v1.667c0 0.189 0.16 0.342 0.356 0.342zM15.288 3.005v0.984h-2.072v-0.984h2.072z"></path>
<path fill="#fff" style="fill: var(--color2, #fff)" d="M2.743 26.344h27.891c1.335 0 2.422-1.040 2.422-2.32v-2.023c0-0.189-0.16-0.342-0.356-0.342h-32.022c-0.196 0-0.356 0.153-0.356 0.342v2.023c0 1.279 1.087 2.32 2.421 2.32zM1.034 24.024v-1.681h31.309v1.681c0 0.902-0.766 1.637-1.709 1.637h-27.891c-0.943 0-1.709-0.734-1.709-1.637z"></path>
<path fill="#fff" style="fill: var(--color2, #fff)" d="M0.678 22.343h32.022c0.197 0 0.356-0.153 0.356-0.342v-14.903c0-1.531-1.3-2.776-2.897-2.776h-2.68c-0.197 0-0.356 0.153-0.356 0.342s0.16 0.342 0.356 0.342h2.68c1.205 0 2.185 0.939 2.185 2.092v14.562h-31.309v-14.562c0-1.153 0.98-2.092 2.185-2.092h2.68c0.196 0 0.356-0.153 0.356-0.342s-0.16-0.342-0.356-0.342h-2.68c-1.597 0-2.897 1.245-2.897 2.776v14.903c0 0.189 0.16 0.342 0.356 0.342z"></path>
<path fill="#6d95fc" style="fill: var(--color1, #6d95fc)" d="M17.733 4.672h2.785c0.197 0 0.356-0.153 0.356-0.342v-1.667c0-0.189-0.16-0.342-0.356-0.342h-2.785c-0.197 0-0.356 0.153-0.356 0.342v1.667c0 0.189 0.16 0.342 0.356 0.342zM20.161 3.005v0.984h-2.072v-0.984h2.072z"></path>
<path fill="#6d95fc" style="fill: var(--color1, #6d95fc)" d="M25.39 4.664h-2.785c-0.192 0-0.348-0.149-0.348-0.333v-1.667c0-0.184 0.156-0.333 0.348-0.333h2.785c0.192 0 0.348 0.149 0.348 0.333v1.667c0 0.184-0.156 0.333-0.348 0.333zM22.954 3.997h2.088v-1h-2.088v1z"></path>
<path fill="#6d95fc" style="fill: var(--color1, #6d95fc)" d="M10.772 15.333h-2.784c-0.192 0-0.348-0.149-0.348-0.333v-1.667c0-0.184 0.156-0.333 0.348-0.333h2.784c0.192 0 0.348 0.149 0.348 0.333v1.667c0 0.184-0.156 0.333-0.348 0.333zM8.335 14.666h2.088v-1h-2.088v1z"></path>
<path fill="#6d95fc" style="fill: var(--color1, #6d95fc)" d="M15.645 15.333h-2.784c-0.192 0-0.348-0.149-0.348-0.333v-1.667c0-0.184 0.156-0.333 0.348-0.333h2.784c0.192 0 0.348 0.149 0.348 0.333v1.667c0 0.184-0.156 0.333-0.348 0.333zM13.208 14.666h2.088v-1h-2.088v1z"></path>
<path fill="#6d95fc" style="fill: var(--color1, #6d95fc)" d="M20.517 15.333h-2.785c-0.192 0-0.348-0.149-0.348-0.333v-1.667c0-0.184 0.156-0.333 0.348-0.333h2.785c0.192 0 0.348 0.149 0.348 0.333v1.667c0 0.184-0.156 0.333-0.348 0.333zM18.081 14.666h2.088v-1h-2.088v1z"></path>
<path fill="#6d95fc" style="fill: var(--color1, #6d95fc)" d="M25.39 15.333h-2.785c-0.192 0-0.348-0.149-0.348-0.333v-1.667c0-0.184 0.156-0.333 0.348-0.333h2.785c0.192 0 0.348 0.149 0.348 0.333v1.667c0 0.184-0.156 0.333-0.348 0.333zM22.954 14.666h2.088v-1h-2.088v1z"></path>
<path fill="#fff" style="fill: var(--color2, #fff)" d="M12.86 30.345h7.657c0.197 0 0.356-0.153 0.356-0.342v-4.001c0-0.189-0.16-0.342-0.356-0.342h-7.657c-0.196 0-0.356 0.153-0.356 0.342v4.001c0 0.189 0.16 0.342 0.356 0.342zM20.161 26.344v3.318h-6.945v-3.318h6.945z"></path>
<path fill="#fff" style="fill: var(--color2, #fff)" d="M14.601 30.345h4.177c0.197 0 0.356-0.153 0.356-0.342v-4.001c0-0.189-0.16-0.342-0.356-0.342h-4.177c-0.196 0-0.356 0.153-0.356 0.342v4.001c0 0.189 0.16 0.342 0.356 0.342zM18.421 26.344v3.318h-3.464v-3.318h3.464z"></path>
<path fill="#fff" style="fill: var(--color2, #fff)" d="M11.816 31.678h9.746c0.58 0 1.052-0.452 1.052-1.009s-0.472-1.008-1.052-1.008h-9.746c-0.58 0-1.052 0.452-1.052 1.008s0.472 1.009 1.052 1.009zM11.476 30.67c0-0.179 0.152-0.325 0.34-0.325h9.746c0.188 0 0.34 0.146 0.34 0.325s-0.152 0.325-0.34 0.325h-9.746c-0.188 0-0.34-0.146-0.34-0.325z"></path>
</symbol>
<symbol id="icon-location" viewBox="0 0 23 32">
<path fill="#6d95fc" style="fill: var(--color2, #6d95fc)" d="M11.733 15.2c-1.078 0-2.111-0.421-2.873-1.172s-1.19-1.768-1.19-2.828c0-1.061 0.428-2.078 1.19-2.828s1.796-1.172 2.873-1.172c1.078 0 2.111 0.421 2.873 1.172s1.19 1.768 1.19 2.828c0 0.525-0.105 1.045-0.309 1.531s-0.504 0.926-0.881 1.298c-0.377 0.371-0.825 0.666-1.318 0.867s-1.021 0.305-1.555 0.305zM11.733 0c-3.018 0-5.912 1.18-8.045 3.28s-3.332 4.949-3.332 7.92c0 8.4 11.378 20.8 11.378 20.8s11.378-12.4 11.378-20.8c0-2.97-1.199-5.819-3.332-7.92s-5.028-3.28-8.045-3.28z"></path>
</symbol>
<symbol id="icon-phone1" viewBox="0 0 33 32">
<path fill="#6d95fc" style="fill: var(--color2, #6d95fc)" d="M6.625 13.636c2.635 4.954 6.881 9.015 12.060 11.536l4.026-3.851c0.512-0.49 1.226-0.63 1.867-0.438 2.050 0.648 4.246 0.998 6.533 0.998 0.485 0 0.951 0.184 1.294 0.513s0.536 0.774 0.536 1.238v6.127c0 0.464-0.193 0.909-0.536 1.238s-0.809 0.513-1.294 0.513c-8.251 0-16.164-3.135-21.999-8.716s-9.112-13.15-9.112-21.042c0-0.464 0.193-0.909 0.536-1.238s0.809-0.513 1.294-0.513h6.405c0.485 0 0.951 0.184 1.294 0.513s0.536 0.774 0.536 1.238c0 2.188 0.366 4.289 1.043 6.249 0.201 0.613 0.055 1.295-0.457 1.786l-4.026 3.851z"></path>
</symbol>
<symbol id="icon-pagination" viewBox="0 0 32 32">
<path d="M4 4h24v24h-24z"></path>
</symbol>

</defs>
</svg>
